<?xml version='1.0' encoding='utf-8'?>
<svg xmlns:xlink="http://www.w3.org/1999/xlink" xmlns="http://www.w3.org/2000/svg" width="190.75mm" height="184.91mm" version="1.1" viewBox="0 0 190.75 184.91"> <defs> <linearGradient id="a"> <stop stop-color="#338000" offset="0"/> <stop stop-color="#225600" stop-opacity=".9918" offset="1"/> </linearGradient> <linearGradient id="h"> <stop stop-color="#c96f33" stop-opacity=".98907" offset="0"/> <stop stop-color="#953c00" offset="1"/> </linearGradient> <linearGradient id="i"> <stop stop-color="#793100" stop-opacity="0" offset="0"/> <stop stop-color="#793100" offset="1"/> </linearGradient> <linearGradient id="j"> <stop stop-color="#c96f33" offset="0"/> <stop stop-color="#953c00" offset="1"/> </linearGradient> <linearGradient id="g"> <stop stop-color="#c87137" stop-opacity=".99669" offset="0"/> <stop stop-color="#ae4600" offset="1"/> </linearGradient> <linearGradient id="x" x1="45.163" x2="141.4" y1="152.54" y2="151.18" gradientTransform="matrix(.55485 0 0 .55485 38.453 44.333)" gradientUnits="userSpaceOnUse" xlink:href="#h"/> <linearGradient id="w" x1="85.352" x2="85.369" y1="122.16" y2="118.59" gradientTransform="matrix(.55485 0 0 .55485 39.076 44.333)" gradientUnits="userSpaceOnUse" xlink:href="#i"/> <linearGradient id="v" x1="43.025" x2="116.62" y1="126.03" y2="126.43" gradientTransform="matrix(.57569 0 0 .55485 41.59 74.641)" gradientUnits="userSpaceOnUse" xlink:href="#g"/> <linearGradient id="u" x1="37.385" x2="139.57" y1="108" y2="107.38" gradientTransform="matrix(.55485 0 0 .55485 38.453 44.333)" gradientUnits="userSpaceOnUse" xlink:href="#j"/> <radialGradient id="p" cx="133.58" cy="94.692" r="18.945" gradientTransform="matrix(-.20094 .9796 -2.3213 -.47614 368.38 65.705)" gradientUnits="userSpaceOnUse" xlink:href="#a"/> <radialGradient id="o" cx="103.87" cy="48.963" r="13.835" gradientTransform="matrix(.22038 .97541 -3.7753 .85297 304.03 -20.488)" gradientUnits="userSpaceOnUse" xlink:href="#a"/> <radialGradient id="n" cx="141.7" cy="-19.241" r="19.349" gradientTransform="matrix(-.122 .99253 -2.8861 -.35477 109.84 -1.0631)" gradientUnits="userSpaceOnUse" xlink:href="#a"/> <radialGradient id="f" cx="182.39" cy="73.37" r="11.41" gradientTransform="matrix(1.9725 -.13112 .14922 2.2447 -188.31 -50.599)" gradientUnits="userSpaceOnUse" xlink:href="#a"/> <radialGradient id="m" cx="177.46" cy="63.447" r="11.41" gradientTransform="matrix(1.6362 .028705 -.036714 2.0927 -116.06 -80.046)" gradientUnits="userSpaceOnUse" xlink:href="#a"/> <radialGradient id="l" cx="140.87" cy="-20.383" r="19.349" gradientTransform="matrix(.039438 .31443 -1.2647 .15863 82.367 95.063)" gradientUnits="userSpaceOnUse" xlink:href="#a"/> <radialGradient id="c" cx="133.58" cy="94.692" r="18.945" gradientTransform="matrix(.9646 .26371 -.62488 2.2858 130.67 -160.51)" gradientUnits="userSpaceOnUse" xlink:href="#a"/> <radialGradient id="k" cx="138.78" cy="93.157" r="18.945" gradientTransform="matrix(.84956 .3697 -.94555 2.1728 176.51 -164.7)" gradientUnits="userSpaceOnUse" xlink:href="#a"/> <radialGradient id="e" cx="128.21" cy="95.771" r="18.945" gradientTransform="matrix(.929 .37009 -.76566 1.922 148.76 -140.27)" gradientUnits="userSpaceOnUse" xlink:href="#a"/> <radialGradient id="d" cx="112.54" cy="97.912" r="18.945" gradientTransform="matrix(.89697 .44209 -1.0463 2.1229 179.55 -164.64)" gradientUnits="userSpaceOnUse" xlink:href="#a"/> <radialGradient id="t" cx="141.7" cy="-19.241" r="19.349" gradientTransform="matrix(.52531 0 0 2.4997 295.34 77.78)" gradientUnits="userSpaceOnUse" xlink:href="#a"/> <radialGradient id="s" cx="103.87" cy="48.963" r="13.835" gradientTransform="matrix(.74014 -.19937 .77167 2.8647 238.99 -81.549)" gradientUnits="userSpaceOnUse" xlink:href="#a"/> <radialGradient id="r" cx="182.39" cy="73.37" r="11.41" gradientTransform="matrix(1.9706 -.15695 .14179 1.7802 -187.42 -11.804)" gradientUnits="userSpaceOnUse" xlink:href="#a"/> <linearGradient id="an" x1="45.163" x2="141.4" y1="152.54" y2="151.18" gradientTransform="matrix(.56119 0 0 .56119 317.87 18.956)" gradientUnits="userSpaceOnUse" xlink:href="#h"/> <linearGradient id="am" x1="85.352" x2="85.369" y1="122.16" y2="118.59" gradientTransform="matrix(.56119 0 0 .56119 318.5 18.956)" gradientUnits="userSpaceOnUse" xlink:href="#i"/> <linearGradient id="al" x1="43.025" x2="116.62" y1="126.03" y2="126.43" gradientTransform="matrix(.58227 0 0 .56119 321.05 49.61)" gradientUnits="userSpaceOnUse" xlink:href="#g"/> <linearGradient id="ak" x1="37.385" x2="139.57" y1="108" y2="107.38" gradientTransform="matrix(.56119 0 0 .56119 317.87 18.956)" gradientUnits="userSpaceOnUse" xlink:href="#j"/> <linearGradient id="b"> <stop stop-color="#2f1a0d" offset="0"/> <stop stop-color="#5c3319" offset="1"/> </linearGradient> <linearGradient id="aj" x1="91.177" x2="91.385" y1="104.99" y2="96.162" gradientTransform="matrix(-1.0801 .024826 .014939 .64994 208.11 109.05)" gradientUnits="userSpaceOnUse" xlink:href="#b"/> <linearGradient id="ai" x1="91.177" x2="91.385" y1="104.99" y2="96.162" gradientTransform="matrix(.45371 .010429 -.0062754 .27302 99.091 150.24)" gradientUnits="userSpaceOnUse" xlink:href="#b"/> <linearGradient id="ah" x1="91.177" x2="91.385" y1="104.99" y2="96.162" gradientTransform="matrix(.45383 .0024447 -.0014711 .27309 83.094 152.74)" gradientUnits="userSpaceOnUse" xlink:href="#b"/> <linearGradient id="ag" x1="91.462" x2="91.385" y1="105.24" y2="96.162" gradientTransform="matrix(.22547 -.015444 .0092934 .13568 79.369 166.27)" gradientUnits="userSpaceOnUse" xlink:href="#b"/> <linearGradient id="af" x1="89.612" x2="89.507" y1="105.49" y2="101.57" gradientTransform="matrix(.45383 .0024447 -.0014711 .27309 107.21 150.89)" gradientUnits="userSpaceOnUse" xlink:href="#b"/> <linearGradient id="ae" x1="91.462" x2="91.385" y1="105.24" y2="96.162" gradientTransform="matrix(.099697 -.0068289 .0041092 .059992 88.577 173.34)" gradientUnits="userSpaceOnUse" xlink:href="#b"/> <linearGradient id="ad" x1="91.462" x2="91.385" y1="105.24" y2="96.162" gradientTransform="matrix(-.055291 -.0037872 -.0022789 .033271 102.13 176.35)" gradientUnits="userSpaceOnUse" xlink:href="#b"/> <linearGradient id="ac" x1="91.462" x2="91.385" y1="105.24" y2="96.162" gradientTransform="matrix(.099697 -.0068289 .0041092 .059992 126.1 173.63)" gradientUnits="userSpaceOnUse" xlink:href="#b"/> <linearGradient id="ab" x1="91.462" x2="91.385" y1="105.24" y2="96.162" gradientTransform="matrix(.092991 -.0063696 .0038328 .055957 125.5 173.41)" gradientUnits="userSpaceOnUse" xlink:href="#b"/> <linearGradient id="aa" x1="91.462" x2="91.385" y1="105.24" y2="96.162" gradientTransform="matrix(.10325 -.0070724 .0042557 .062131 138 174.29)" gradientUnits="userSpaceOnUse" xlink:href="#b"/> <linearGradient id="z" x1="91.462" x2="91.385" y1="105.24" y2="96.162" gradientTransform="matrix(.099697 -.0068289 .0041092 .059992 145.4 173.73)" gradientUnits="userSpaceOnUse" xlink:href="#b"/> <linearGradient id="y" x1="91.462" x2="91.385" y1="105.24" y2="96.162" gradientTransform="matrix(-.099697 -.0040355 -.0041092 .035452 161.29 176.52)" gradientUnits="userSpaceOnUse" xlink:href="#b"/> <radialGradient id="q" cx="116.43" cy="89.184" r="18.945" gradientTransform="matrix(.87395 .49096 -1.598 2.7901 236.15 -235.47)" gradientUnits="userSpaceOnUse" xlink:href="#a"/> </defs> <g transform="translate(-16.257 -.80269)"> <g transform="translate(-100.42 64.649)"> <g transform="translate(-220.13 -12.171)"> <g transform="translate(2.2451 1.1225)" stroke-linecap="round"> <path transform="matrix(-1.1944 -.11425 -.11425 1.1944 597.66 -41.991)" d="m201.44 10.221c-0.10257 2.8062-0.47576 5.6539-1.0002 8.4101-0.14109 2.9e-4 -0.24641-0.37322-0.26469-0.19296-0.0426 0.42083 2e-3 1.086 0.0257 1.3889-0.0918 0.44262-0.18801 0.88502-0.28777 1.3274-0.23442 1.0396-0.48585 2.0863-0.76023 3.125-0.15271 0.0054-0.24252-0.37088-0.27405-0.19055-0.0765 0.43739-0.0649 1.1155-0.0553 1.4097-0.54848 1.9734-1.1587 3.9358-1.8155 5.9021-0.15914-0.02553-0.24086-0.36375-0.28154-0.1918-0.0971 0.41057-0.11 1.0197-0.10894 1.3426-0.84952 2.4787-1.7438 4.8701-2.6704 7.3259-0.22729-0.01638-0.34289-0.44769-0.39811-0.23956-0.13475 0.50797-0.13973 1.2623-0.13147 1.6359-0.98484 2.5973-1.9868 5.2015-2.9046 7.7697-0.2286-0.07347-0.36215-0.46372-0.40995-0.25619-0.11016 0.47859-0.0958 1.1612-0.0681 1.597-1.1554 3.3212-2.1415 6.559-2.9072 9.8552-0.24915-0.0049-0.43699-0.49807-0.46124-0.2645-0.0569 0.54822 0.0522 1.3347 0.12648 1.7646-0.92776 4.4363-1.3408 8.6099-1.3532 13.041-0.20941-0.01425-0.43323-0.61634-0.41318-0.32024 0.0523 0.77144 0.30376 1.8429 0.43605 2.3559 0.1104 4.8166 0.66862 9.6162 0.94751 14.272-0.14906 0.05777-0.36334-0.54034-0.32739-0.24242 0.0805 0.66741 0.28042 1.5515 0.41602 2.0942 0.16148 4.0704-0.0121 7.7906-0.91836 11.541-0.26657 0.0229-0.44601-0.4853-0.48365-0.21461-0.0841 0.6046-0.0334 1.4118 0.0204 1.9274-1.26 4.1705-3.3598 7.9724-5.8826 11.745 3.6343 2.8497 5.4976 3.8762 7.664 3.3464 2.0296-0.49629 4.0269-2.3164 7.8449-3.7588 0.82334-9.4405-0.54845-16.767-1.6724-26.053-1.1354-9.3812-1.3658-16.77-0.15251-26.472 1.1096-8.8732 3.3146-18.371 5.26-27.431 1.8387-8.5631 4.0325-18.767 3.2614-27.35z" fill="url(#c)" stroke-width=".234"/> <path transform="matrix(.55923 .18389 -.18389 .55923 294.49 -21.569)" d="m218.49 15.752c-0.86041 2.5728-2.0103 5.2772-3.2468 7.8624-0.22903-0.02588-0.34607-0.41184-0.40153-0.23838-0.13021 0.40748-0.14893 1.0648-0.15066 1.3702-0.20723 0.41946-0.41881 0.83942-0.63357 1.2598-0.50467 0.98796-1.024 1.9871-1.5681 2.9794-0.24155-0.01886-0.34281-0.40872-0.4117-0.23374-0.16741 0.42525-0.21887 1.1033-0.23389 1.3996-1.0634 1.8907-2.1854 3.7699-3.3688 5.6599-0.24175-0.04799-0.33729-0.40052-0.41478-0.23304-0.18488 0.39964-0.25797 1.0125-0.28473 1.3375-1.5214 2.3869-3.0707 4.6634-4.6989 7.0149-0.34261-0.04925-0.48046-0.50245-0.58257-0.30046-0.24857 0.4919-0.32394 1.2552-0.34542 1.6319-1.7336 2.4827-3.4924 4.9329-5.1712 7.3601-0.34258-0.11358-0.50934-0.53081-0.60409-0.33084-0.21792 0.46016-0.26688 1.1508-0.27094 1.5917-2.1253 3.1136-4.0614 6.1549-5.7119 9.2176-0.39706-0.06554-0.6385-0.6036-0.70781-0.3788-0.16202 0.52547-0.0894 1.3359-0.0286 1.7758-2.0848 4.1186-3.4594 8.0385-4.1829 12.218-0.35326-0.0963-0.65058-0.76637-0.66293-0.47793-0.0319 0.74526 0.23721 1.88 0.37961 2.4104-0.58612 4.7294-0.31542 9.0856-4e-3 13.84-0.21812-0.01246-0.52415-0.6963-0.47557-0.39189 0.10819 0.67795 0.39656 1.6402 0.58615 2.222 0.2464 4.0333 0.35297 7.7648-0.28654 11.469-0.28302-0.0382-0.51618-0.61288-0.53123-0.3372-0.0335 0.61346 0.0897 1.4775 0.18789 2.0238-1.0058 4.2189-2.8824 7.5783-5.4676 11.206 1.7775 1.5513 3.3243 2.6065 4.8132 3.0935 1.4606 0.47769 2.7422 0.36526 4.0438-0.0864 2.5855-0.8972 5.014-3.0661 8.904-4.351 0.66198-8.5105-0.97359-16.898-1.0232-25.155-0.052-8.6392 1.3587-16.018 4.2363-24.806 2.6561-8.1112 6.578-17.331 10.039-25.708 3.2769-7.9312 7.4584-17.874 8.2806-25.915z" fill="url(#c)" stroke-width=".234"/> <path transform="matrix(.70849 -.2184 .2184 .70849 191.47 33.642)" d="m201.44 10.221c-0.0998 2.8425-0.47416 5.7521-1.001 8.5947-0.14109 0.0033-0.2461-0.37866-0.26453-0.1929-0.043 0.4336 6.7e-4 1.1174 0.0244 1.4283-0.0923 0.45785-0.18896 0.91624-0.28923 1.3753-0.23564 1.0788-0.48843 2.1689-0.76427 3.2549-0.15278 0.01244-0.24216-0.37296-0.27394-0.18495-0.0771 0.45606-0.0663 1.1577-0.0571 1.4614-0.55126 2.069-1.1646 4.1418-1.8241 6.2307-0.15933-0.01514-0.24083-0.36123-0.28175-0.17957-0.0977 0.43381-0.11112 1.0684-0.11033 1.4037-0.85349 2.6415-1.7493 5.204-2.6779 7.8516-0.22777 0.0036-0.34371-0.43698-0.39902-0.21467-0.13497 0.54271-0.13966 1.3312-0.13119 1.7203-0.98698 2.8061-1.9854 5.6198-2.901 8.402-0.22929-0.05448-0.36396-0.45104-0.41143-0.22901-0.10942 0.51216-0.0934 1.226-0.0646 1.6797-1.1501 3.592-2.1257 7.0792-2.878 10.592-0.24978 0.01627-0.4404-0.48514-0.46363-0.23889-0.0545 0.57833 0.0586 1.3915 0.13532 1.8344-0.90825 4.7096-1.2965 9.0546-1.2871 13.543-0.21149-0.01563-0.44065-0.63099-0.41903-0.33169 0.0564 0.7811 0.31535 1.8641 0.45153 2.3827 0.13211 4.8306 0.70285 9.4768 0.97138 13.841-0.15516 0.01535-0.37606-0.60079-0.34006-0.31658 0.0808 0.63814 0.28468 1.5079 0.42322 2.044 0.14741 3.7863-0.0567 7.1403-0.99895 10.506-0.27656-0.0457-0.46343-0.58596-0.50234-0.33443-0.0869 0.56182-0.0331 1.3592 0.0231 1.8699-1.2957 3.7262-3.4324 7.1489-5.9356 10.663 3.7395 3.2874 6.1441 3.9595 8.8349 3.001 2.5448-0.90649 4.9213-3.0496 8.652-4.3691 0.37338-8.3009-1.3254-16.497-2.3288-24.949-1.0685-9.0004-1.228-16.84-0.29693-26.547 0.89628-9.3441 2.6156-18.47 4.4051-27.915 1.6277-8.5914 3.7546-19.045 2.981-27.678z" fill="url(#c)" stroke-width=".234"/> <path transform="matrix(-.94686 .039293 .039293 .94686 531.7 -34.928)" d="m201.44 10.221c-0.0998 2.8425-0.47416 5.7521-1.001 8.5947-0.14109 0.0033-0.2461-0.37866-0.26453-0.1929-0.043 0.4336 6.7e-4 1.1174 0.0244 1.4283-0.0923 0.45785-0.18896 0.91624-0.28923 1.3753-0.23564 1.0788-0.48843 2.1689-0.76427 3.2549-0.15278 0.01244-0.24216-0.37296-0.27394-0.18495-0.0771 0.45606-0.0663 1.1577-0.0571 1.4614-0.55126 2.069-1.1646 4.1418-1.8241 6.2307-0.15933-0.01514-0.24083-0.36123-0.28175-0.17957-0.0977 0.43381-0.11112 1.0684-0.11033 1.4037-0.85349 2.6415-1.7493 5.204-2.6779 7.8516-0.22777 0.0036-0.34371-0.43698-0.39902-0.21467-0.13497 0.54271-0.13966 1.3312-0.13119 1.7203-0.98698 2.8061-1.9854 5.6198-2.901 8.402-0.22929-0.05448-0.36396-0.45104-0.41143-0.22901-0.10942 0.51216-0.0934 1.226-0.0646 1.6797-1.1501 3.592-2.1257 7.0792-2.878 10.592-0.24978 0.01627-0.4404-0.48514-0.46363-0.23889-0.0545 0.57833 0.0586 1.3915 0.13532 1.8344-0.90825 4.7096-1.2965 9.0546-1.2871 13.543-0.21149-0.01563-0.44065-0.63099-0.41903-0.33169 0.0564 0.7811 0.31535 1.8641 0.45153 2.3827 0.13211 4.8306 0.70285 9.4768 0.97138 13.841-0.15516 0.01535-0.37606-0.60079-0.34006-0.31658 0.0808 0.63814 0.28468 1.5079 0.42322 2.044 0.14741 3.7863-0.0567 7.1403-0.99895 10.506-0.27656-0.0457-0.46343-0.58596-0.50234-0.33443-0.0869 0.56182-0.0331 1.3592 0.0231 1.8699-1.2957 3.7262-3.4324 7.1489-5.9356 10.663 3.7395 3.2874 6.1441 3.9595 8.8349 3.001 2.5448-0.90649 4.9213-3.0496 8.652-4.3691 0.37338-8.3009-1.3254-16.497-2.3288-24.949-1.0685-9.0004-1.228-16.84-0.29693-26.547 0.89628-9.3441 2.6156-18.47 4.4051-27.915 1.6277-8.5914 3.7546-19.045 2.981-27.678z" fill="url(#c)" stroke-width=".234"/> <path transform="matrix(.94768 0 0 .94768 197.76 -36.128)" d="m201.44 10.221c-0.10257 2.8062-0.47576 5.6539-1.0002 8.4101-0.14109 2.9e-4 -0.24641-0.37322-0.26469-0.19296-0.0426 0.42083 2e-3 1.086 0.0257 1.3889-0.0918 0.44262-0.18801 0.88502-0.28777 1.3274-0.23442 1.0396-0.48585 2.0863-0.76023 3.125-0.15271 0.0054-0.24252-0.37088-0.27405-0.19055-0.0765 0.43739-0.0649 1.1155-0.0553 1.4097-0.54848 1.9734-1.1587 3.9358-1.8155 5.9021-0.15914-0.02553-0.24086-0.36375-0.28154-0.1918-0.0971 0.41057-0.11 1.0197-0.10894 1.3426-0.84952 2.4787-1.7438 4.8701-2.6704 7.3259-0.22729-0.01638-0.34289-0.44769-0.39811-0.23956-0.13475 0.50797-0.13973 1.2623-0.13147 1.6359-0.98484 2.5973-1.9868 5.2015-2.9046 7.7697-0.2286-0.07347-0.36215-0.46372-0.40995-0.25619-0.11016 0.47859-0.0958 1.1612-0.0681 1.597-1.1554 3.3212-2.1415 6.559-2.9072 9.8552-0.24915-0.0049-0.43699-0.49807-0.46124-0.2645-0.0569 0.54822 0.0522 1.3347 0.12648 1.7646-0.92776 4.4363-1.3408 8.6099-1.3532 13.041-0.20941-0.01425-0.43323-0.61634-0.41318-0.32024 0.0523 0.77144 0.30376 1.8429 0.43605 2.3559 0.1104 4.8166 0.66862 9.6162 0.94751 14.272-0.14906 0.05777-0.36334-0.54034-0.32739-0.24242 0.0805 0.66741 0.28042 1.5515 0.41602 2.0942 0.16148 4.0704-0.0121 7.7906-0.91836 11.541-0.26657 0.0229-0.44601-0.4853-0.48365-0.21461-0.0841 0.6046-0.0334 1.4118 0.0204 1.9274-1.26 4.1705-3.3598 7.9724-5.8826 11.745 3.6343 2.8497 5.4976 3.8762 7.664 3.3464 2.0296-0.49629 4.0269-2.3164 7.8449-3.7588 0.82334-9.4405-0.54845-16.767-1.6724-26.053-1.1354-9.3812-1.3658-16.77-0.15251-26.472 1.1096-8.8732 3.3146-18.371 5.26-27.431 1.8387-8.5631 4.0325-18.767 3.2614-27.35z" fill="url(#c)" stroke-width=".234"/> <path d="m369.25-18.682c-5e-3 0.09574-0.0104 0.19168-0.0152 0.28742-3e-3 -0.04969-7e-3 -0.09954-0.01-0.14926-0.17099 2.2224-0.33258 4.4507-0.48918 6.6816-0.12023-0.0026-0.24787-0.30309-0.24458-0.15859 8e-3 0.34386 0.11874 0.86598 0.17672 1.1172-0.0247 0.35495-0.0492 0.7097-0.0736 1.0648-0.0574 0.83549-0.10943 1.6741-0.16559 2.5103-0.1208 0.00172-0.2498-0.30385-0.24649-0.15859 8e-3 0.35474 0.1257 0.89841 0.18187 1.1394-0.1057 1.5854-0.20997 3.1717-0.31326 4.7586-0.11618-0.02192-0.23473-0.2964-0.23155-0.15725 8e-3 0.33117 0.11078 0.82676 0.1702 1.0875-0.12894 1.9857-0.26287 3.9685-0.39226 5.954-0.14147-0.00976-0.2897-0.35724-0.28584-0.18746 9e-3 0.4094 0.14186 1.0312 0.21065 1.3291-0.13952 2.1319-0.28482 4.2602-0.43054 6.3884-0.1424-0.05244-0.28077-0.36655-0.27688-0.1959 9e-3 0.38878 0.12056 0.95459 0.19789 1.3043-0.18882 2.7272-0.37884 5.4537-0.58852 8.1685-0.16055 0.0016-0.33206-0.40356-0.32766-0.21056 0.0102 0.44385 0.14962 1.1101 0.2283 1.4544-0.2843 3.6068-0.59508 7.1982-0.9406 10.769-0.2031-0.03094-0.39826-0.55711-0.40203-0.31229-9e-3 0.61388 0.16025 1.5747 0.23888 1.9857-0.39679 3.9571-0.83995 7.8863-1.3489 11.776-0.21293 8.59e-4 -0.42361-0.57435-0.42755-0.31807-9e-3 0.5558 0.12818 1.397 0.21445 1.8684-0.45598 3.3605-0.96401 6.6902-1.531 9.9845-0.24324-0.02175-0.46548-0.54828-0.47533-0.29719-0.0215 0.54838 0.11458 1.3615 0.20685 1.8391-0.66596 3.7286-1.4034 7.4142-2.2471 11.037 3.679 3.4652 6.0713 6.4666 9.773 6.3695 3.6364-0.09542 5.7987-1.8621 9.3759-5.3858-0.88689-3.5949-0.489-8.7036-1.1995-12.41 0.0865-0.48049 0.2129-1.2977 0.18487-1.8453-0.0129-0.25074-0.22887 0.28276-0.4718 0.31229-0.60634-3.2755-1.1541-6.5881-1.6502-9.9334 0.0806-0.47407 0.20712-1.3197 0.19192-1.8751-7e-3 -0.2561-0.21057 0.32617-0.42348 0.33184-0.5554-3.8731-1.0454-7.7876-1.4895-11.731 0.0737-0.41344 0.23178-1.3793 0.21499-1.9928-7e-3 -0.24465-0.19555 0.28774-0.39823 0.32518-0.38818-3.5586-0.74186-7.1391-1.0693-10.736 0.0745-0.34674 0.20609-1.0179 0.21092-1.462 2e-3 -0.1931-0.16467 0.21762-0.32521 0.22122-0.24213-2.7075-0.46454-5.4274-0.68597-8.148 0.0731-0.35208 0.17789-0.92148 0.18214-1.3105 2e-3 -0.17073-0.13296 0.14824-0.27471 0.20524-0.17115-2.1232-0.3418-4.2467-0.50682-6.3738 0.0652-0.30005 0.19018-0.92616 0.19464-1.3358 2e-3 -0.16985-0.14235 0.18245-0.28367 0.1968-0.15312-1.9809-0.3107-3.959-0.46339-5.9402 0.0563-0.26257 0.15383-0.76145 0.15745-1.0928 1e-3 -0.13922-0.11376 0.13874-0.22966 0.16436-0.12225-1.5833-0.24561-3.1657-0.37026-4.7475 0.0532-0.24279 0.16441-0.78985 0.1683-1.1448 1e-3 -0.14534-0.12407 0.164-0.24486 0.16658-0.0661-0.83426-0.1278-1.6715-0.19517-2.505-0.0286-0.35426-0.0577-0.70806-0.0866-1.0621 0.055-0.25307 0.15968-0.77852 0.16342-1.1226 1e-3 -0.14457-0.12249 0.16012-0.24269 0.16614-0.18326-2.2255-0.37143-4.4478-0.56898-6.6643z" fill="url(#t)" stroke-width=".15724"/> <path d="m353.21-4.386c0.32601 1.9705 0.63834 3.9467 0.94365 5.9257 0.17526-0.00839 0.35101-0.28379 0.3512-0.15486 4e-4 0.30683-0.14331 0.77795-0.21918 1.0051 0.0482 0.31486 0.0966 0.62965 0.14437 0.94468 0.1125 0.7412 0.21704 1.4857 0.32778 2.2276 0.17618-0.00552 0.35387-0.28485 0.35405-0.15523 4.2e-4 0.31653-0.15228 0.80739-0.22588 1.0253 0.20884 1.4067 0.41581 2.8141 0.62117 4.2223 0.16866-0.02606 0.3319-0.2772 0.33208-0.15304 3.7e-4 0.29551-0.13309 0.74311-0.21073 0.97876 0.25654 1.762 0.52022 3.5212 0.77738 5.283 0.20595-0.01673 0.41027-0.33494 0.41049-0.18345 5.1e-4 0.36532-0.17131 0.92689-0.26133 1.1962 0.27703 1.8917 0.56221 3.7801 0.84813 5.6682 0.20582-0.05478 0.39687-0.34259 0.39709-0.19033 4.6e-4 0.34692-0.14268 0.85739-0.24338 1.1733 0.36944 2.4193 0.74049 4.8379 1.1399 7.245 0.23416-0.0077 0.47025-0.37853 0.4705-0.20632 5.2e-4 0.39606-0.17983 0.99795-0.28268 1.3092 0.53903 3.1977 1.1162 6.38 1.7432 9.5417 0.29506-0.03903 0.56121-0.51878 0.57517-0.30086 0.0349 0.54645-0.17916 1.4119-0.27962 1.7825 0.71511 3.5034 1.4968 6.9796 2.3731 10.417 0.31052-0.01104 0.59766-0.53573 0.61227-0.30759 0.0317 0.49475-0.13866 1.2522-0.24817 1.6771 0.78083 2.9686 1.6365 5.9064 2.5769 8.8097 0.35392-0.03311 0.66011-0.51468 0.68313-0.2915 0.0502 0.48739-0.12036 1.2194-0.23843 1.6502 1.0997 3.2846 2.3022 6.5271 3.6575 9.7073-6.4336 4.0423-12.33 0.33286-18.282-2.5778-3.1307-25.02-0.50484-51.246 1.1524-77.269z" fill="url(#s)" stroke-width=".17937"/> <path transform="matrix(-.4859 -.044084 -.044084 .4859 463.46 31.396)" d="m218.49 15.752c-0.86041 2.5728-2.0103 5.2772-3.2468 7.8624-0.22903-0.02588-0.34607-0.41184-0.40153-0.23838-0.13021 0.40748-0.14893 1.0648-0.15066 1.3702-0.20723 0.41946-0.41881 0.83942-0.63357 1.2598-0.50467 0.98796-1.024 1.9871-1.5681 2.9794-0.24155-0.01886-0.34281-0.40872-0.4117-0.23374-0.16741 0.42525-0.21887 1.1033-0.23389 1.3996-1.0634 1.8907-2.1854 3.7699-3.3688 5.6599-0.24175-0.04799-0.33729-0.40052-0.41478-0.23304-0.18488 0.39964-0.25797 1.0125-0.28473 1.3375-1.5214 2.3869-3.0707 4.6634-4.6989 7.0149-0.34261-0.04925-0.48046-0.50245-0.58257-0.30046-0.24857 0.4919-0.32394 1.2552-0.34542 1.6319-1.7336 2.4827-3.4924 4.9329-5.1712 7.3601-0.34258-0.11358-0.50934-0.53081-0.60409-0.33084-0.21792 0.46016-0.26688 1.1508-0.27094 1.5917-2.1253 3.1136-4.0614 6.1549-5.7119 9.2176-0.39706-0.06554-0.6385-0.6036-0.70781-0.3788-0.16202 0.52547-0.0894 1.3359-0.0286 1.7758-2.0848 4.1186-3.4594 8.0385-4.1829 12.218-0.35326-0.0963-0.65058-0.76637-0.66293-0.47793-0.0319 0.74526 0.23721 1.88 0.37961 2.4104-0.58612 4.7294-0.31542 9.0856-4e-3 13.84-0.21812-0.01246-0.52415-0.6963-0.47557-0.39189 0.10819 0.67795 0.39656 1.6402 0.58615 2.222 0.2464 4.0333 0.35297 7.7648-0.28654 11.469-0.28302-0.0382-0.51618-0.61288-0.53123-0.3372-0.0335 0.61346 0.0897 1.4775 0.18789 2.0238-1.0058 4.2189-2.8824 7.5783-5.4676 11.206 1.7775 1.5513 3.3243 2.6065 4.8132 3.0935 1.4606 0.47769 2.7422 0.36526 4.0438-0.0864 2.5855-0.8972 5.014-3.0661 8.904-4.351 0.66198-8.5105-0.97359-16.898-1.0232-25.155-0.052-8.6392 1.3587-16.018 4.2363-24.806 2.6561-8.1112 6.578-17.331 10.039-25.708 3.2769-7.9312 7.4584-17.874 8.2806-25.915z" fill="url(#d)" stroke-width=".234"/> <path transform="matrix(.75175 -.14978 .14978 .75175 202.43 23.548)" d="m178.14 15.508c0.63544 2.5734 1.237 5.1549 1.7927 7.7372 0.0558 0.0482 0.0444-0.23548 0.0761-0.07423 0.0819 0.41553 0.13497 0.89211 0.1605 1.1854 0.0862 0.41062 0.17193 0.82376 0.25581 1.2349 0.20099 0.98497 0.38327 1.9252 0.57007 2.9134 0.0826 0.04571 0.10968-0.25028 0.13512-0.08701 0.0665 0.42674 0.0781 0.94246 0.0764 1.2275 0.33827 1.8485 0.64926 3.6945 0.93466 5.557 0.11186 0.0065 0.18838-0.27295 0.2038-0.11423 0.0384 0.39513-3e-3 0.90031-0.039 1.2056 0.34213 2.3195 0.6538 4.6796 0.92061 7.0193 0.1924 0.01003 0.36562-0.36837 0.37192-0.17115 0.0158 0.49572-0.12717 1.1592-0.22041 1.5234 0.27382 2.5215 0.51865 5.0668 0.73912 7.5974 0.24858-0.05643 0.48418-0.41917 0.47785-0.2175-0.0148 0.46949-0.20886 1.1133-0.35892 1.5386 0.27732 3.2512 0.52098 6.5044 0.81057 9.7296 0.33264-0.0019 0.70317-0.48552 0.686-0.25622-0.0401 0.53469-0.35796 1.3139-0.54592 1.7331 0.40531 4.3339 0.87347 8.4546 1.518 12.669 0.45638-0.03166 0.916-0.64206 0.91506-0.35612-2e-3 0.71698-0.4191 1.8299-0.60904 2.3031 0.77003 4.6525 1.7111 9.0575 2.8824 13.573 0.46434 0.03974 0.92446-0.5738 0.93428-0.28321 0.0212 0.62607-0.27212 1.559-0.44883 2.0634 1.044 3.8582 2.2214 7.682 3.4714 11.53 0.50021 0.0586 0.94948-0.45206 0.97463-0.16869 0.0547 0.61769-0.21013 1.4784-0.38734 1.9725 1.3194 3.9964 3.0756 9.1652 4.5513 13.256-4.7041 1.3966-8.8627 0.62985-12.445-1.1315-3.8137-1.8752-6.4863-4.4743-9.5976-7.4248 0.62717-8.7153 0.89535-15.759 0.44899-23.992-0.42437-7.8276-1.409-14.854-1.1984-22.801 0.25302-9.5467 1.6932-14.715 3.0178-25.332 0.56148-4.5003 0.85123-8.6701 0.67293-12.958-0.17629-4.24-0.79789-8.1817-1.7478-12.201l-2e-5 -7.9e-5z" fill="url(#f)" stroke-width=".234"/> <path transform="matrix(.37069 -.043828 .043828 .37069 297.47 46.696)" d="m218.49 15.752c-0.85017 2.5829-1.9941 5.3046-3.2246 7.9118-0.2257-0.02546-0.33915-0.41404-0.3946-0.23911-0.13017 0.4109-0.15185 1.0734-0.15505 1.3811-0.20629 0.4234-0.41695 0.84753-0.63076 1.2723-0.50248 0.99816-1.0196 2.0084-1.5614 3.013-0.23766-0.01746-0.33479-0.4102-0.40367-0.23319-0.1674 0.43017-0.22243 1.1148-0.23912 1.4139-1.0584 1.9149-2.1759 3.8236-3.3536 5.7447-0.23749-0.04575-0.32885-0.40082-0.40632-0.23078-0.18483 0.40574-0.26132 1.0257-0.29004 1.3542-1.5137 2.427-3.0584 4.7514-4.6815 7.1501-0.33758-0.0447-0.47011-0.50095-0.57245-0.29527-0.24914 0.50088-0.32949 1.2736-0.35362 1.6546-1.8344 2.6869-3.3452 4.8316-5.1796 7.5185-0.33956-0.1096-0.50201-0.52918-0.59797-0.3256-0.22069 0.46847-0.27537 1.1675-0.28323 1.6132-2.1443 3.1808-4.1118 6.2762-5.8263 9.3848-0.4014-0.06238-0.63953-0.60385-0.71299-0.37637-0.17167 0.53162-0.10952 1.3492-0.0542 1.7922-2.184 4.1758-3.6987 8.1049-4.6471 12.265-0.37581-0.10259-0.67087-0.77823-0.6964-0.49105-0.0658 0.74072 0.17556 1.8797 0.30506 2.4089-0.86904 4.7176-0.92527 8.9135-1.0657 13.55-0.26592-0.03406-0.57248-0.72662-0.54632-0.42907 0.0581 0.65999 0.30977 1.6219 0.47757 2.1974-0.155 3.8861-0.48367 7.468-1.6114 10.986-0.34822-0.0705-0.5917-0.66104-0.63431-0.39414-0.0945 0.59217-0.0121 1.4557 0.0636 1.9984-1.5941 4.0265-4.2034 6.9071-7.4561 10.364 1.9699 1.6165 3.7213 2.7614 5.4585 3.3636 1.7032 0.5904 3.2386 0.60209 4.8158 0.27801 3.1323-0.64365 6.1893-2.5362 10.683-3.7022 1.3542-8.3071 0.27358-16.532 0.57443-24.745 0.31607-8.6283 1.848-16.007 4.8046-24.942 2.7393-8.2781 6.6154-17.531 10.105-26.07 3.2805-8.0259 7.4781-18.078 8.2908-26.142-7e-5 4e-6 -1.4e-4 8e-6 -2.1e-4 1.3e-5z" fill="url(#e)" stroke-width=".234"/> <path transform="matrix(-.75695 -.12077 -.12077 .75695 530.88 11.676)" d="m178.14 15.508c0.63544 2.5734 1.237 5.1549 1.7927 7.7372 0.0558 0.0482 0.0444-0.23548 0.0761-0.07423 0.0819 0.41553 0.13497 0.89211 0.1605 1.1854 0.0862 0.41062 0.17193 0.82376 0.25581 1.2349 0.20099 0.98497 0.38327 1.9252 0.57007 2.9134 0.0826 0.04571 0.10968-0.25028 0.13512-0.08701 0.0665 0.42674 0.0781 0.94246 0.0764 1.2275 0.33827 1.8485 0.64926 3.6945 0.93466 5.557 0.11186 0.0065 0.18838-0.27295 0.2038-0.11423 0.0384 0.39513-3e-3 0.90031-0.039 1.2056 0.34213 2.3195 0.6538 4.6796 0.92061 7.0193 0.1924 0.01003 0.36562-0.36837 0.37192-0.17115 0.0158 0.49572-0.12717 1.1592-0.22041 1.5234 0.27382 2.5215 0.51865 5.0668 0.73912 7.5974 0.24858-0.05643 0.48418-0.41917 0.47785-0.2175-0.0148 0.46949-0.20886 1.1133-0.35892 1.5386 0.27732 3.2512 0.52098 6.5044 0.81057 9.7296 0.33264-0.0019 0.70317-0.48552 0.686-0.25622-0.0401 0.53469-0.35796 1.3139-0.54592 1.7331 0.40531 4.3339 0.87347 8.4546 1.518 12.669 0.45638-0.03166 0.916-0.64206 0.91506-0.35612-2e-3 0.71698-0.4191 1.8299-0.60904 2.3031 0.77003 4.6525 1.7111 9.0575 2.8824 13.573 0.46434 0.03974 0.92446-0.5738 0.93428-0.28321 0.0212 0.62607-0.27212 1.559-0.44883 2.0634 1.044 3.8582 2.2214 7.682 3.4714 11.53 0.50021 0.0586 0.94948-0.45206 0.97463-0.16869 0.0547 0.61769-0.21013 1.4784-0.38734 1.9725 1.3194 3.9964 3.0756 9.1652 4.5513 13.256-4.7041 1.3966-8.8627 0.62985-12.445-1.1315-3.8137-1.8752-6.4863-4.4743-9.5976-7.4248 0.62717-8.7153 0.89535-15.759 0.44899-23.992-0.42437-7.8276-1.409-14.854-1.1984-22.801 0.25302-9.5467 1.6932-14.715 3.0178-25.332 0.56148-4.5003 0.85123-8.6701 0.67293-12.958-0.17629-4.24-0.79789-8.1817-1.7478-12.201l-2e-5 -7.9e-5z" fill="url(#r)" stroke-width=".234"/> <path transform="matrix(.62331 -.053712 .05655 .59202 250.73 17.423)" d="m218.49 15.752c-0.86041 2.5728-2.0103 5.2772-3.2468 7.8624-0.22903-0.02588-0.34607-0.41184-0.40153-0.23838-0.13021 0.40748-0.14893 1.0648-0.15066 1.3702-0.20723 0.41946-0.41881 0.83942-0.63357 1.2598-0.50467 0.98796-1.024 1.9871-1.5681 2.9794-0.24155-0.01886-0.34281-0.40872-0.4117-0.23374-0.16741 0.42525-0.21887 1.1033-0.23389 1.3996-1.0634 1.8907-2.1854 3.7699-3.3688 5.6599-0.24175-0.04799-0.33729-0.40052-0.41478-0.23304-0.18488 0.39964-0.25797 1.0125-0.28473 1.3375-1.5214 2.3869-3.0707 4.6634-4.6989 7.0149-0.34261-0.04925-0.48046-0.50245-0.58257-0.30046-0.24857 0.4919-0.32394 1.2552-0.34542 1.6319-1.7336 2.4827-3.4924 4.9329-5.1712 7.3601-0.34258-0.11358-0.50934-0.53081-0.60409-0.33084-0.21792 0.46016-0.26688 1.1508-0.27094 1.5917-2.1253 3.1136-4.0614 6.1549-5.7119 9.2176-0.39706-0.06554-0.6385-0.6036-0.70781-0.3788-0.16202 0.52547-0.0894 1.3359-0.0286 1.7758-2.0848 4.1186-3.4594 8.0385-4.1829 12.218-0.35326-0.0963-0.65058-0.76637-0.66293-0.47793-0.0319 0.74526 0.23721 1.88 0.37961 2.4104-0.58612 4.7294-0.31542 9.0856-4e-3 13.84-0.21812-0.01246-0.52415-0.6963-0.47557-0.39189 0.10819 0.67795 0.39656 1.6402 0.58615 2.222 0.2464 4.0333 0.35297 7.7648-0.28654 11.469-0.28302-0.0382-0.51618-0.61288-0.53123-0.3372-0.0335 0.61346 0.0897 1.4775 0.18789 2.0238-1.0058 4.2189-2.8824 7.5783-5.4676 11.206 1.7775 1.5513 3.3243 2.6065 4.8132 3.0935 1.4606 0.47769 2.7422 0.36526 4.0438-0.0864 2.5855-0.8972 5.014-3.0661 8.904-4.351 0.66198-8.5105-0.97359-16.898-1.0232-25.155-0.052-8.6392 1.3587-16.018 4.2363-24.806 2.6561-8.1112 6.578-17.331 10.039-25.708 3.2769-7.9312 7.4584-17.874 8.2806-25.915z" fill="url(#q)" stroke-width=".234"/> </g> <path d="m340.78 80.799 53.653-0.24724c0.32967 0.24724-2.2234 1.5831-0.70008 5.0045 8.6367 19.399 2.5468 26.398-4.6066 33.871-0.59875 0.62547 0.0372 1.1198 0.0285 1.7667-0.0495 3.6845 0.0444 3.5949-8.3474 3.5949h-28.206c-6.3408 0-6.364 0.0325-6.5069-3.5689-0.025-0.63137 0.53169-1.1526-0.0202-1.7926-7.6625-8.8857-13.968-18.296-4.4974-33.801 1.8215-2.9822-0.79707-4.827-0.79707-4.827z" fill="url(#an)"/> <path d="m393.74 85.556c0.0831 0.14299 1.0996 2.5819 1.0143 2.4074l-54.516 0.02013c0.4227-0.80057 0.92243-1.6648 1.3935-2.4377 17.385-0.02104 42.596 0.02326 52.108 0.01011 0.2745 0.64994 0 1e-5 0 1e-5z" fill="url(#am)" stroke-linecap="square" stroke-linejoin="round" stroke-width=".30343"/> <path d="m346.08 119.43h43.052s0.0244 1.7888 0.0285 1.7667l-43.06 0.026c0.0137 1e-5 -0.021-1.7926-0.021-1.7926z" fill="url(#al)" stroke-linecap="square" stroke-linejoin="round" stroke-width=".30908"/> <path d="m341.22 74.82h52.916c1.2914 0 2.3311 1.0397 2.3311 2.3311v6.0609c0 1.2914-1.0397 2.3311-2.3311 2.3311h-52.916c-1.2914 0-2.3311-1.0397-2.3311-2.3311v-6.0609c0-1.2914 1.0397-2.3311 2.3311-2.3311z" fill="url(#ak)" stroke-linecap="square" stroke-linejoin="round" stroke-width=".30343"/> <path d="m375.14 124.26c5.7562-0.8197 12.404-0.0874 13.833-2.6369-0.0224 1.1732-0.0182 2.7124-1.6918 2.6642-3.9929 0.16434-8.0638 0.0627-12.141-0.0273z" fill="#b04a05" opacity=".66586" stroke-linecap="square" stroke-linejoin="round" stroke-width=".30343"/> <path d="m340.9 84.792 34.983 0.0051c-5.8798-0.53126-34.893-0.32319-36.484-7.495 0.16765 3.7416-0.87294 7.7446 1.5012 7.4903z" fill="#d67b40" opacity=".63922" stroke-linecap="square" stroke-linejoin="round" stroke-width=".30343"/> <path d="m393.92 75.665-34.983-0.0051c5.8798 0.53126 34.893 0.3232 36.484 7.495-0.16765-3.7416 0.87294-7.7446-1.5012-7.4903z" fill="#d67b40" opacity=".20097" stroke-linecap="square" stroke-linejoin="round" stroke-width=".30343"/> <path d="m349.51 124.44 9.6728 0.0253c-5.7562-0.8197-11.321-0.37626-12.749-2.9258 0.0223 1.1732-0.0149 2.8437 1.6586 2.7955z" fill="#b5612a" fill-opacity=".99216" opacity=".66586" stroke-linecap="square" stroke-linejoin="round" stroke-width=".30343"/> <path d="m396.37 101.2c0 6.8114-3.7254 12.405-4.5174 12.405-0.79202 1e-5 2.2228-6.5256 2.2228-13.337 0-6.8114-1.8676-10.541-1.7209-11.831 0.0894-0.78696 4.0154 5.952 4.0154 12.763z" fill="#c86e32" fill-opacity=".98824" opacity=".25996" stroke-linecap="round" stroke-width=".17937"/> </g> </g> <path d="m64.649 123.41c-3.4264 3.0661-1.2609 11.982-5.9963 14.653-13.575 7.6563-13.284 24.973-9.2539 31.946 11.1 19.207 48.986 8.1874 48.248 5.104 0 0 2.6075-46.069-12.444-55.985-5.844-3.85-15.338-0.38472-20.553 4.282z" stroke-linecap="round" stroke-linejoin="round" stroke-width="1.4747"/> <path d="m64.649 123.41c-3.4264 3.0661-1.2609 11.982-5.9963 14.653-13.575 7.6563-13.284 24.973-9.2539 31.946 11.1 19.207 48.986 8.1874 48.248 5.104 0 0 2.6075-46.069-12.444-55.985-5.844-3.85-15.338-0.38472-20.553 4.282z" stroke-linecap="round" stroke-linejoin="round" stroke-width="1.4747"/> <path transform="matrix(1.44 -.13567 .13567 1.44 -61.626 111.82)" d="m68.642 23.309c0.16135-0.76798 0.12127-1.5774-0.11517-2.3257-0.23644-0.74828-0.6687-1.4338-1.242-1.9696-0.57333-0.53584-1.2864-0.92082-2.049-1.1062-0.76254-0.18537-1.5728-0.1707-2.3281 0.04214-0.75533 0.21285-1.454 0.62339-2.0076 1.1796-0.55356 0.55624-0.96073 1.2569-1.1699 2.0133s-0.21997 1.5667-0.03093 2.3283c0.18904 0.76164 0.57746 1.4729 1.116 2.0436 1.0044 1.0643 2.4385 1.5805 3.755 2.2196 0.65824 0.31953 1.3032 0.68092 1.8549 1.1615 0.55176 0.48056 1.0091 1.0894 1.22 1.79 0.29034 0.96444 0.09509 2.002-0.1361 2.9823-0.23119 0.98031-0.4987 1.9858-0.34592 2.9814 0.17524 1.142 0.89052 2.1371 1.7358 2.9247s1.8295 1.4085 2.7373 2.123c2.2612 1.7798 4.0456 4.1598 5.12 6.8294" fill="none" stroke="#000" stroke-linecap="round" stroke-linejoin="round" stroke-width="5.4782"/> <path d="m102.41 124.47-16.838 12.967 3.841 6.0208 13.759-11.893z" fill-opacity=".98824" stroke-linecap="round" stroke-width=".234"/> <g transform="matrix(.64412 0 0 .64412 60.358 65.5)"> <path d="m98.904 179.34c-0.34215 0.0293-0.1358-0.42833 0.21135-0.69158 0.21869-0.16584 0.41199-0.2671 0.6213-0.31807 0.7704-0.18755 0.48459-0.3561 1.038-0.39399 0.55114-0.0377 0.89242-0.21494 1.0968 0.27247 0.13816 0.32942 0.7621 0.45247 0.35503 0.88144-0.67826 0.71476-2.2088 0.17649-3.3225 0.24958z" fill="url(#ag)" stroke-linecap="round" stroke-linejoin="round" stroke-width=".93052"/> <path d="m101.01 179.65s1.1583 0.88739 3.4194 0.54085c2.253-0.34529 6.4192-0.64806 9.6681-0.36701 0.3347 0.34147 1.6026 0.41663 2.3208 0.3462 0.44552-0.0437 1.2592-0.18198 4.3544-0.75601 2.6308-0.4879 0.0874-3.8378-2.5483-4.2293-3.7492-0.55682-4.279-1.3704-6.93-1.3094-2.6401 0.0607-7.1764 0.31078-7.9369 2.7203-2.5277 0.91526-2.7432 2.9428-2.3475 3.0544z" fill="url(#aj)" stroke-linecap="round" stroke-linejoin="round" stroke-width="4.4482"/> <g transform="translate(.18709 -.93544)"> <path transform="matrix(-.72903 -.62077 -.62077 .72903 294.72 164.52)" d="m218.49 15.752c-0.86041 2.5728-2.0103 5.2772-3.2468 7.8624-0.22903-0.02588-0.34607-0.41184-0.40153-0.23838-0.13021 0.40748-0.14893 1.0648-0.15066 1.3702-0.20723 0.41946-0.41881 0.83942-0.63357 1.2598-0.50467 0.98796-1.024 1.9871-1.5681 2.9794-0.24155-0.01886-0.34281-0.40872-0.4117-0.23374-0.16741 0.42525-0.21887 1.1033-0.23389 1.3996-1.0634 1.8907-2.1854 3.7699-3.3688 5.6599-0.24175-0.04799-0.33729-0.40052-0.41478-0.23304-0.18488 0.39964-0.25797 1.0125-0.28473 1.3375-1.5214 2.3869-3.0707 4.6634-4.6989 7.0149-0.34261-0.04925-0.48046-0.50245-0.58257-0.30046-0.24857 0.4919-0.32394 1.2552-0.34542 1.6319-1.7336 2.4827-3.4924 4.9329-5.1712 7.3601-0.34258-0.11358-0.50934-0.53081-0.60409-0.33084-0.21792 0.46016-0.26688 1.1508-0.27094 1.5917-2.1253 3.1136-4.0614 6.1549-5.7119 9.2176-0.39706-0.06554-0.6385-0.6036-0.70781-0.3788-0.16202 0.52547-0.0894 1.3359-0.0286 1.7758-2.0848 4.1186-3.4594 8.0385-4.1829 12.218-0.35326-0.0963-0.65058-0.76637-0.66293-0.47793-0.0319 0.74526 0.23721 1.88 0.37961 2.4104-0.58612 4.7294-0.31542 9.0856-4e-3 13.84-0.21812-0.01246-0.52415-0.6963-0.47557-0.39189 0.10819 0.67795 0.39656 1.6402 0.58615 2.222 0.2464 4.0333 0.35297 7.7648-0.28654 11.469-0.28302-0.0382-0.51618-0.61288-0.53123-0.3372-0.0335 0.61346 0.0897 1.4775 0.18789 2.0238-1.0058 4.2189-2.8824 7.5783-5.4676 11.206 1.7775 1.5513 3.3243 2.6065 4.8132 3.0935 1.4606 0.47769 2.7422 0.36526 4.0438-0.0864 2.5855-0.8972 5.014-3.0661 8.904-4.351 0.66198-8.5105-0.97359-16.898-1.0232-25.155-0.052-8.6392 1.3587-16.018 4.2363-24.806 2.6561-8.1112 6.578-17.331 10.039-25.708 3.2769-7.9312 7.4584-17.874 8.2806-25.915z" fill="url(#c)" stroke-linecap="round" stroke-width=".234"/> <path transform="matrix(-.26048 .93147 -.93147 -.26048 248.67 .98519)" d="m201.44 10.221c-0.0998 2.8425-0.47416 5.7521-1.001 8.5947-0.14109 0.0033-0.2461-0.37866-0.26453-0.1929-0.043 0.4336 6.7e-4 1.1174 0.0244 1.4283-0.0923 0.45785-0.18896 0.91624-0.28923 1.3753-0.23564 1.0788-0.48843 2.1689-0.76427 3.2549-0.15278 0.01244-0.24216-0.37296-0.27394-0.18495-0.0771 0.45606-0.0663 1.1577-0.0571 1.4614-0.55126 2.069-1.1646 4.1418-1.8241 6.2307-0.15933-0.01514-0.24083-0.36123-0.28175-0.17957-0.0977 0.43381-0.11112 1.0684-0.11033 1.4037-0.85349 2.6415-1.7493 5.204-2.6779 7.8516-0.22777 0.0036-0.34371-0.43698-0.39902-0.21467-0.13497 0.54271-0.13966 1.3312-0.13119 1.7203-0.98698 2.8061-1.9854 5.6198-2.901 8.402-0.22929-0.05448-0.36396-0.45104-0.41143-0.22901-0.10942 0.51216-0.0934 1.226-0.0646 1.6797-1.1501 3.592-2.1257 7.0792-2.878 10.592-0.24978 0.01627-0.4404-0.48514-0.46363-0.23889-0.0545 0.57833 0.0586 1.3915 0.13532 1.8344-0.90825 4.7096-1.2965 9.0546-1.2871 13.543-0.21149-0.01563-0.44065-0.63099-0.41903-0.33169 0.0564 0.7811 0.31535 1.8641 0.45153 2.3827 0.13211 4.8306 0.70285 9.4768 0.97138 13.841-0.15516 0.01535-0.37606-0.60079-0.34006-0.31658 0.0808 0.63814 0.28468 1.5079 0.42322 2.044 0.14741 3.7863-0.0567 7.1403-0.99895 10.506-0.27656-0.0457-0.46343-0.58596-0.50234-0.33443-0.0869 0.56182-0.0331 1.3592 0.0231 1.8699-1.2957 3.7262-3.4324 7.1489-5.9356 10.663 3.7395 3.2874 6.1441 3.9595 8.8349 3.001 2.5448-0.90649 4.9213-3.0496 8.652-4.3691 0.37338-8.3009-1.3254-16.497-2.3288-24.949-1.0685-9.0004-1.228-16.84-0.29693-26.547 0.89628-9.3441 2.6156-18.47 4.4051-27.915 1.6277-8.5914 3.7546-19.045 2.981-27.678z" fill="url(#c)" stroke-linecap="round" stroke-width=".234"/> <path transform="matrix(-.64206 -1.0565 -1.0565 .64206 333.36 253.84)" d="m201.44 10.221c-0.0998 2.8425-0.47416 5.7521-1.001 8.5947-0.14109 0.0033-0.2461-0.37866-0.26453-0.1929-0.043 0.4336 6.7e-4 1.1174 0.0244 1.4283-0.0923 0.45785-0.18896 0.91624-0.28923 1.3753-0.23564 1.0788-0.48843 2.1689-0.76427 3.2549-0.15278 0.01244-0.24216-0.37296-0.27394-0.18495-0.0771 0.45606-0.0663 1.1577-0.0571 1.4614-0.55126 2.069-1.1646 4.1418-1.8241 6.2307-0.15933-0.01514-0.24083-0.36123-0.28175-0.17957-0.0977 0.43381-0.11112 1.0684-0.11033 1.4037-0.85349 2.6415-1.7493 5.204-2.6779 7.8516-0.22777 0.0036-0.34371-0.43698-0.39902-0.21467-0.13497 0.54271-0.13966 1.3312-0.13119 1.7203-0.98698 2.8061-1.9854 5.6198-2.901 8.402-0.22929-0.05448-0.36396-0.45104-0.41143-0.22901-0.10942 0.51216-0.0934 1.226-0.0646 1.6797-1.1501 3.592-2.1257 7.0792-2.878 10.592-0.24978 0.01627-0.4404-0.48514-0.46363-0.23889-0.0545 0.57833 0.0586 1.3915 0.13532 1.8344-0.90825 4.7096-1.2965 9.0546-1.2871 13.543-0.21149-0.01563-0.44065-0.63099-0.41903-0.33169 0.0564 0.7811 0.31535 1.8641 0.45153 2.3827 0.13211 4.8306 0.70285 9.4768 0.97138 13.841-0.15516 0.01535-0.37606-0.60079-0.34006-0.31658 0.0808 0.63814 0.28468 1.5079 0.42322 2.044 0.14741 3.7863-0.0567 7.1403-0.99895 10.506-0.27656-0.0457-0.46343-0.58596-0.50234-0.33443-0.0869 0.56182-0.0331 1.3592 0.0231 1.8699-1.2957 3.7262-3.4324 7.1489-5.9356 10.663 3.7395 3.2874 6.1441 3.9595 8.8349 3.001 2.5448-0.90649 4.9213-3.0496 8.652-4.3691 0.37338-8.3009-1.3254-16.497-2.3288-24.949-1.0685-9.0004-1.228-16.84-0.29693-26.547 0.89628-9.3441 2.6156-18.47 4.4051-27.915 1.6277-8.5914 3.7546-19.045 2.981-27.678z" fill="url(#c)" stroke-linecap="round" stroke-width=".234"/> <path transform="matrix(-.17936 1.2232 -1.2232 -.17936 276.12 -59.42)" d="m201.44 10.221c-0.10257 2.8062-0.47576 5.6539-1.0002 8.4101-0.14109 2.9e-4 -0.24641-0.37322-0.26469-0.19296-0.0426 0.42083 2e-3 1.086 0.0257 1.3889-0.0918 0.44262-0.18801 0.88502-0.28777 1.3274-0.23442 1.0396-0.48585 2.0863-0.76023 3.125-0.15271 0.0054-0.24252-0.37088-0.27405-0.19055-0.0765 0.43739-0.0649 1.1155-0.0553 1.4097-0.54848 1.9734-1.1587 3.9358-1.8155 5.9021-0.15914-0.02553-0.24086-0.36375-0.28154-0.1918-0.0971 0.41057-0.11 1.0197-0.10894 1.3426-0.84952 2.4787-1.7438 4.8701-2.6704 7.3259-0.22729-0.01638-0.34289-0.44769-0.39811-0.23956-0.13475 0.50797-0.13973 1.2623-0.13147 1.6359-0.98484 2.5973-1.9868 5.2015-2.9046 7.7697-0.2286-0.07347-0.36215-0.46372-0.40995-0.25619-0.11016 0.47859-0.0958 1.1612-0.0681 1.597-1.1554 3.3212-2.1415 6.559-2.9072 9.8552-0.24915-0.0049-0.43699-0.49807-0.46124-0.2645-0.0569 0.54822 0.0522 1.3347 0.12648 1.7646-0.92776 4.4363-1.3408 8.6099-1.3532 13.041-0.20941-0.01425-0.43323-0.61634-0.41318-0.32024 0.0523 0.77144 0.30376 1.8429 0.43605 2.3559 0.1104 4.8166 0.66862 9.6162 0.94751 14.272-0.14906 0.05777-0.36334-0.54034-0.32739-0.24242 0.0805 0.66741 0.28042 1.5515 0.41602 2.0942 0.16148 4.0704-0.0121 7.7906-0.91836 11.541-0.26657 0.0229-0.44601-0.4853-0.48365-0.21461-0.0841 0.6046-0.0334 1.4118 0.0204 1.9274-1.26 4.1705-3.3598 7.9724-5.8826 11.745 3.6343 2.8497 5.4976 3.8762 7.664 3.3464 2.0296-0.49629 4.0269-2.3164 7.8449-3.7588 0.82334-9.4405-0.54845-16.767-1.6724-26.053-1.1354-9.3812-1.3658-16.77-0.15251-26.472 1.1096-8.8732 3.3146-18.371 5.26-27.431 1.8387-8.5631 4.0325-18.767 3.2614-27.35z" fill="url(#c)" stroke-linecap="round" stroke-width=".234"/> <path d="m204.05 152.28c-0.10947-0.0225-0.21896-0.0465-0.32829-0.0697 0.0581 1e-3 0.11648 1e-3 0.1746 3e-3 -2.5263-0.63826-5.0615-1.2601-7.601-1.8725 0.0309-0.22682 0.40751-0.42533 0.23991-0.4396-0.39884-0.034-1.0274 0.10143-1.331 0.17532-0.40412-0.0968-0.80803-0.19346-1.2123-0.2901-0.95133-0.22693-1.9075-0.44434-2.86-0.66915 0.0261-0.22849 0.40884-0.42884 0.24035-0.44321-0.41145-0.035-1.0665 0.11-1.3578 0.18193-1.806-0.42475-3.6132-0.84684-5.4215-1.2673 0.0521-0.21644 0.39676-0.40144 0.23536-0.41518-0.38414-0.0326-0.98032 0.092-1.2951 0.16724-2.2628-0.52551-4.521-1.0599-6.7833-1.5862 0.0438-0.26599 0.47975-0.49669 0.28284-0.51348-0.47486-0.0405-1.2236 0.12168-1.5835 0.20938-2.4291-0.56621-4.8526-1.1428-7.2761-1.7202 0.0936-0.26162 0.48844-0.47849 0.2905-0.49536-0.45094-0.0384-1.1302 0.0923-1.5518 0.18879-3.105-0.7438-6.2088-1.4898-9.2946-2.2713 0.0355-0.30356 0.54308-0.57012 0.31923-0.5892-0.51482-0.0439-1.3165 0.12515-1.7323 0.22494-4.0984-1.049-8.1728-2.146-12.215-3.3055 0.0831-0.37929 0.73573-0.67341 0.45394-0.71529-0.70657-0.10502-1.8554 0.0793-2.3482 0.16953-4.4766-1.3113-8.9104-2.7063-13.284-4.22 0.0485-0.40242 0.76153-0.71885 0.46655-0.76267-0.63975-0.095-1.6428 0.0439-2.2071 0.14001-3.7741-1.3385-7.5005-2.7709-11.172-4.3098 0.0816-0.45649 0.74115-0.80168 0.45353-0.85592-0.62819-0.1183-1.5986 0.0233-2.1715 0.12981-4.1503-1.7875-8.2345-3.704-12.221-5.8122-4.8554 6.4594-8.8764 10.554-9.624 17.561-0.73441 6.8843 0.80318 11.221 4.0409 18.479 4.3566-1.1655 10.163 0.31135 14.607-0.50497 0.53467 0.23171 1.4489 0.58645 2.0877 0.61116 0.29248 0.0113-0.27332-0.47255-0.25099-0.93574 3.9227-0.68077 7.8747-1.2455 11.852-1.7081 0.52864 0.21956 1.4756 0.57864 2.1204 0.6287 0.29735 0.023-0.3277-0.44414-0.2848-0.84722 4.6009-0.49969 9.2343-0.87 13.891-1.1493 0.46026 0.19788 1.5388 0.63369 2.251 0.68905 0.28402 0.022-0.28681-0.41032-0.28296-0.79859 4.1989-0.22839 8.415-0.38846 12.644-0.49658 0.38302 0.19005 1.1274 0.53385 1.639 0.606 0.22247 0.0314-0.21302-0.34201-0.17991-0.64585 3.1823-0.0732 6.3744-0.10745 9.567-0.13969 0.38951 0.18818 1.0226 0.4669 1.4708 0.53015 0.19662 0.0283-0.14027-0.27227-0.17317-0.54818 2.4912-0.0221 4.9826-0.0431 7.4769-0.053 0.33129 0.1658 1.0252 0.49076 1.4971 0.55734 0.19563 0.0281-0.1776-0.29485-0.16134-0.56393 2.3228-8e-3 4.6432-0.0251 6.9662-0.0325 0.29009 0.14366 0.84346 0.39871 1.2252 0.45258 0.16046 0.0224-0.13377-0.23463-0.13643-0.45724 1.8565-6e-3 3.7122-0.0148 5.5674-0.0258 0.26796 0.13508 0.87378 0.42275 1.2827 0.48048 0.16745 0.0236-0.16054-0.25769-0.13546-0.48629 0.97859-7e-3 1.9596-4e-3 2.9376-0.0132 0.41567-4e-3 0.83092-9e-3 1.2465-0.0129 0.27943 0.13977 0.86178 0.41221 1.2582 0.46809 0.16654 0.0235-0.15643-0.25415-0.13548-0.48212 2.6122-0.0304 5.2217-0.0705 7.8267-0.1292z" fill="url(#n)" stroke-linecap="round" stroke-width=".234"/> <path transform="rotate(7.4842 70.155 76.811)" d="m195.66 163.39c-2.5236-0.64893-5.056-1.2807-7.5929-1.9037 0.0309-0.22681 0.40893-0.42372 0.24144-0.43869-0.39871-0.0356-1.0274 0.0972-1.3313 0.17-7.8859-1.9261 6.6747 1.6305-1.2112-0.2956-0.95037-0.23094-1.9059-0.45188-2.8574-0.68062 0.0273-0.22833 0.41062-0.42731 0.24224-0.44235-0.4113-0.0367-1.0666 0.10567-1.3583 0.17641-1.8042-0.4322-3.6096-0.86207-5.4161-1.2899 0.0532-0.21618 0.39816-0.39963 0.23682-0.41405-0.38399-0.0343-0.98093 0.088-1.296 0.16194-2.0706-0.48987-4.7062-1.1243-6.7767-1.6142 0.0452-0.26574 0.48217-0.49488 0.28535-0.51247-0.47471-0.0424-1.2241 0.11666-1.5844 0.20277-2.4268-0.57627-4.8482-1.1627-7.2692-1.7501 0.0947-0.26123 0.49059-0.47661 0.29274-0.4943-0.45079-0.0402-1.1306 0.0874-1.5526 0.18214-3.1019-0.75668-6.2026-1.5154-9.2851-2.3096 0.0367-0.30343 0.54568-0.56785 0.32191-0.58785-0.51465-0.046-1.3175 0.11959-1.7336 0.2177-4.094-1.066-8.1636-2.1799-12.201-3.3562 0.0845-0.37899 0.73834-0.67003 0.45673-0.71308-0.70615-0.1079-1.8553 0.0714-2.3484 0.15981-4.4712-1.3298-8.8993-2.743-13.266-4.2748 0.0497-0.40227 0.76452-0.71547 0.46972-0.76052-0.63935-0.0977-1.6432 0.0371-2.2079 0.13079-3.7686-1.3541-7.4887-2.8019-11.154-4.356 0.0835-0.45615 0.74432-0.79903 0.45691-0.85446-0.62766-0.121-1.5984 0.017-2.1718 0.12124-4.1429-1.8046-8.2192-3.738-12.197-5.8628-5.9887 7.8988-1.8421 15.986 1.2601 24.054 32.157 6.9286 66.54 6.5141 100.55 7.335-1e-5 -7e-5 -1e-5 -1.4e-4 -2e-5 -2.2e-4" fill="url(#p)" stroke-linecap="round" stroke-width=".234"/> <path d="m197.36 124.28c-2.586 0.31979-5.1785 0.62145-7.7744 0.9138 2e-3 0.22889 0.35119 0.47268 0.18311 0.46605-0.39997-0.0159-1.0064-0.22833-1.2985-0.33935-0.41299 0.046-0.82589 0.0923-1.2391 0.13777-0.97214 0.10709-1.9481 0.20361-2.9211 0.30836-2e-3 0.22996 0.35241 0.47648 0.18345 0.4698-0.41262-0.0164-1.0443-0.24156-1.3245-0.34917-1.8448 0.19715-3.6904 0.39183-5.5369 0.58436 0.0249 0.22122 0.34361 0.44742 0.18177 0.44102-0.38523-0.0153-0.96155-0.21311-1.2646-0.32691-2.3105 0.24034-4.6176 0.49017-6.9278 0.73134 0.0108 0.26936 0.41469 0.55266 0.21721 0.54486-0.47622-0.0188-1.199-0.2728-1.5453-0.40448-2.4806 0.26014-4.9573 0.5311-7.4337 0.80301 0.0604 0.27122 0.42539 0.53561 0.2269 0.52777-0.45222-0.0179-1.11-0.23176-1.5164-0.37987-3.1733 0.35245-6.3457 0.70701-9.5047 1.0992-3e-3 0.30561 0.46831 0.63317 0.24382 0.62429-0.51629-0.0204-1.2912-0.28771-1.6914-0.43834-4.197 0.53197-8.3759 1.1145-12.531 1.7631 0.0351 0.38669 0.64629 0.75922 0.36147 0.76578-0.71415 0.0164-1.8307-0.3092-2.3086-0.45957-4.6048 0.74517-9.1777 1.5785-13.705 2.5374-2e-3 0.40535 0.66642 0.80764 0.36827 0.8145-0.64659 0.0149-1.6249-0.2476-2.1729-0.41295-3.9112 0.85937-7.7863 1.8179-11.621 2.8888 0.0243 0.46309 0.63565 0.88792 0.34351 0.90602-0.63798 0.0394-1.583-0.22195-2.1382-0.39885-4.3402 1.2582-8.6309 2.6526-12.849 4.2494-4.9258-8.6019 0.2242-16.09 4.3359-23.693 32.78-2.7455 66.826 2.077 100.66 5.6261z" fill="url(#o)" stroke-linecap="round" stroke-width=".234"/> <path transform="matrix(-.021826 -.63613 -.63613 .021826 166.88 252.5)" d="m218.49 15.752c-0.86041 2.5728-2.0103 5.2772-3.2468 7.8624-0.22903-0.02588-0.34607-0.41184-0.40153-0.23838-0.13021 0.40748-0.14893 1.0648-0.15066 1.3702-0.20723 0.41946-0.41881 0.83942-0.63357 1.2598-0.50467 0.98796-1.024 1.9871-1.5681 2.9794-0.24155-0.01886-0.34281-0.40872-0.4117-0.23374-0.16741 0.42525-0.21887 1.1033-0.23389 1.3996-1.0634 1.8907-2.1854 3.7699-3.3688 5.6599-0.24175-0.04799-0.33729-0.40052-0.41478-0.23304-0.18488 0.39964-0.25797 1.0125-0.28473 1.3375-1.5214 2.3869-3.0707 4.6634-4.6989 7.0149-0.34261-0.04925-0.48046-0.50245-0.58257-0.30046-0.24857 0.4919-0.32394 1.2552-0.34542 1.6319-1.7336 2.4827-3.4924 4.9329-5.1712 7.3601-0.34258-0.11358-0.50934-0.53081-0.60409-0.33084-0.21792 0.46016-0.26688 1.1508-0.27094 1.5917-2.1253 3.1136-4.0614 6.1549-5.7119 9.2176-0.39706-0.06554-0.6385-0.6036-0.70781-0.3788-0.16202 0.52547-0.0894 1.3359-0.0286 1.7758-2.0848 4.1186-3.4594 8.0385-4.1829 12.218-0.35326-0.0963-0.65058-0.76637-0.66293-0.47793-0.0319 0.74526 0.23721 1.88 0.37961 2.4104-0.58612 4.7294-0.31542 9.0856-4e-3 13.84-0.21812-0.01246-0.52415-0.6963-0.47557-0.39189 0.10819 0.67795 0.39656 1.6402 0.58615 2.222 0.2464 4.0333 0.35297 7.7648-0.28654 11.469-0.28302-0.0382-0.51618-0.61288-0.53123-0.3372-0.0335 0.61346 0.0897 1.4775 0.18789 2.0238-1.0058 4.2189-2.8824 7.5783-5.4676 11.206 1.7775 1.5513 3.3243 2.6065 4.8132 3.0935 1.4606 0.47769 2.7422 0.36526 4.0438-0.0864 2.5855-0.8972 5.014-3.0661 8.904-4.351 0.66198-8.5105-0.97359-16.898-1.0232-25.155-0.052-8.6392 1.3587-16.018 4.2363-24.806 2.6561-8.1112 6.578-17.331 10.039-25.708 3.2769-7.9312 7.4584-17.874 8.2806-25.915z" fill="url(#d)" stroke-linecap="round" stroke-width=".234"/> <path transform="matrix(.3215 -.94691 -.94691 -.3215 138.13 355.28)" d="m172.51 13.554c0.81837 2.6703 1.5588 5.2923 2.1858 8.0031 0.0602 0.01609 0.0435-0.32122 0.0814-0.15006 0.1005 0.45429 0.15514 0.96484 0.17869 1.3078 0.093 0.42859 0.18317 0.85969 0.26928 1.2899 0.20578 1.0279 0.37998 2.0207 0.5439 3.0584 0.12301 0.0053 0.20724-0.35939 0.22711-0.18346 0.0524 0.46415-3e-3 1.0522-0.0483 1.3856 0.27548 1.9525 0.47177 3.907 0.5923 5.8962 0.2022-0.04619 0.4101-0.406 0.4042-0.23164-0.0147 0.43325-0.20701 1.0344-0.34102 1.3968 0.11372 2.4842 0.12405 5.0091 0.0369 7.5378 0.36612-0.06887 0.81569-0.57323 0.77583-0.35275-0.099 0.54763-0.5648 1.3725-0.83288 1.8117-0.12575 2.7223-0.32692 5.4754-0.55683 8.2075 0.48997-0.15636 1.0585-0.65274 0.99177-0.42519-0.15341 0.52265-0.7145 1.3292-1.1031 1.849-0.29971 3.5079-0.63128 7.0039-0.79075 10.423 0.61618-0.11488 1.4438-0.77077 1.3576-0.51398-0.19592 0.58351-0.99238 1.5732-1.4112 2.0746-0.15086 4.5702 0.0106 8.8404 0.67602 13.082 0.80035-0.15716 1.7263-0.92703 1.686-0.62459-0.0973 0.728-1.0027 2.0748-1.3487 2.5801 0.91117 4.6613 2.3962 8.9196 4.4592 13.295 0.74505-0.02267 1.5126-0.71238 1.5307-0.41852 0.0376 0.61144-0.43222 1.6415-0.67083 2.1406 1.8837 3.7641 4.0697 7.4388 6.381 11.361 0.72231 0.0469 1.3475-0.50747 1.4112-0.21603 0.13463 0.61637-0.16408 1.5607-0.33658 2.0525 2.9831 5.091 6.0433 9.6089 7.5956 14.148-5.4188 2.3249-8.5127 0.70848-12.111-2.338-3.55-3.0057-7.1407-7.2548-11.207-10.2-1.6753-7.8939-1.7923-12.015-3.6392-17.595-1.7671-5.3393-5.1438-12.623-5.4207-21.575-0.14356-4.6399 0.49563-9.328 1.8785-14.6 1.4148-5.3941 3.2497-10.185 5.046-15.583 1.7559-5.2773 3.0491-9.9836 3.3511-14.742 0.30237-4.764-0.43984-8.8333-1.8419-13.15-3e-5 -8.3e-5 -3e-5 -8.4e-5 -3e-5 -8.5e-5z" fill="url(#m)" stroke-linecap="round" stroke-width=".234"/> <path d="m136.7 133.16-3.4642 0.14148c-8e-3 -0.0721 0.13473-0.1676 0.0619-0.15646-0.17336 0.0268-0.42923 0.126-0.552 0.17667-0.18143 8e-3 -0.36275 0.0157-0.54425 0.0235-0.42702 0.0187-0.85522 0.0408-1.2825 0.0602-0.01-0.0722 0.13498-0.1688 0.0617-0.15761-0.17886 0.0275-0.44511 0.13222-0.56284 0.18118-0.81008 0.0373-1.6204 0.0756-2.4311 0.11446 2e-3 -0.0709 0.13234-0.15931 0.0622-0.14857-0.16706 0.025-0.40998 0.11874-0.53742 0.17089-1.0144 0.0488-2.0276 0.0945-3.0418 0.14303-6e-3 -0.0853 0.15899-0.19607 0.0734-0.18298-0.20639 0.0319-0.51108 0.15037-0.65664 0.21042-1.0891 0.0517-2.1768 0.0999-3.2645 0.14772 0.0158-0.0886 0.16438-0.19133 0.0783-0.17818-0.19608 0.0296-0.47392 0.13271-0.64502 0.20122-1.394 0.06-2.7877 0.11933-4.177 0.1661-0.0128-0.096 0.17925-0.22437 0.0819-0.20948-0.22381 0.0341-0.55043 0.15994-0.71871 0.22894-1.8462 0.0587-3.6865 0.1006-5.5188 0.12036 4.3e-4 -0.12353 0.25196-0.27373 0.12782-0.26046-0.31134 0.033-0.78468 0.19588-0.98672 0.26899-2.0318 0.0136-4.0531-2e-3 -6.0595-0.0601-0.0164-0.12739 0.25879-0.28999 0.12883-0.2761-0.28183 0.0303-0.69719 0.16536-0.92921 0.24694-1.7345-0.0597-3.4572-0.15246-5.1665-0.28281-7e-3 -0.14697 0.24246-0.31341 0.11468-0.30337-0.27905 0.022-0.68022 0.15496-0.91495 0.24052-1.9364-0.162-3.8565-0.36954-5.7527-0.64466-1.477 2.422-2.8159 4.0444-2.4889 6.2539 0.32123 2.1706 2.1983 3.9668 4.2497 5.8843 1.7522-0.75899 3.5459-1.4591 5.3679-2.1195 0.24959 0.0213 0.67256 0.0451 0.9475-6e-3 0.12586-0.0239-0.16024-0.11904-0.19342-0.26258 1.6117-0.57078 3.2466-1.1089 4.9018-1.6181 0.24591 0.0182 0.68323 0.0402 0.9631-4e-3 0.12907-0.0202-0.18083-0.10534-0.19969-0.23242 1.9179-0.57821 3.8616-1.1199 5.8235-1.636 0.21472 0.0179 0.71527 0.0512 1.0244 2e-3 0.12328-0.0195-0.16025-0.0988-0.19441-0.21773 1.7713-0.45817 3.5562-0.89709 5.3516-1.3213 0.18103 0.0226 0.53045 0.0588 0.7555 0.0335 0.0979-0.0113-0.12246-0.0847-0.13634-0.18061 1.3516-0.31675 2.7111-0.62248 4.0709-0.92767 0.18362 0.0214 0.47958 0.048 0.6767 0.0259 0.0866-0.01-0.085-0.0702-0.12447-0.15141 1.0614-0.23718 2.1229-0.47408 3.1867-0.70782 0.1567 0.0199 0.48286 0.055 0.69044 0.0317 0.0861-0.01-0.10296-0.0737-0.12086-0.15731 0.99074-0.21739 1.9797-0.43721 2.9706-0.65432 0.13708 0.0171 0.3968 0.0437 0.56472 0.0249 0.0705-8e-3 -0.0787-0.0593-0.1004-0.12703 0.79188-0.1736 1.5832-0.3479 2.3741-0.52289 0.12684 0.0165 0.41196 0.0483 0.59182 0.0281 0.0736-9e-3 -0.0923-0.0638-0.10266-0.136 0.41712-0.0925 0.83609-0.18257 1.2527-0.27579 0.17708-0.0396 0.35391-0.0795 0.53087-0.1193 0.13217 0.0169 0.40587 0.0462 0.58023 0.0266 0.0732-8e-3 -0.0902-0.0632-0.10228-0.13472 1.1122-0.25092 2.2052-0.49303 3.3117-0.75193 0.0574-0.0163 0.0242-0.0368-7e-3 -0.0279z" fill="url(#l)" stroke-linecap="round" stroke-width=".087211"/> <path transform="matrix(-.095179 .76207 -.76207 -.095179 200.08 17.463)" d="m225.05 22.397c-0.068 1.801-0.71585 4.5885-1.0865 6.7077-0.2747-0.0447-0.56748-0.42638-0.56178-0.26483 0.0134 0.37688 0.26397 1.0167 0.38525 1.3107-0.062 0.39253-0.121 0.78698-0.17596 1.189-0.12943 0.94665-0.22603 1.9155-0.31079 2.9111-0.24614-0.02591-0.535-0.42772-0.52073-0.25161 0.034 0.41992 0.3132 1.1305 0.43362 1.426-0.13003 1.9463-0.1764 3.8725-0.20132 5.9367-0.22322-0.04731-0.49388-0.42592-0.47154-0.24549 0.0521 0.42082 0.31878 1.1013 0.45758 1.4412-0.0244 2.5786-0.0505 5.1472-0.20952 7.7531-0.3018-0.04813-0.66199-0.55147-0.64352-0.3267 0.0436 0.52938 0.37809 1.4138 0.53466 1.8118-0.23493 2.7937-0.66747 5.4682-1.4196 8.1208-0.37756-0.13426-0.72013-0.60416-0.73817-0.38644-0.0404 0.48921 0.17124 1.2742 0.31385 1.7455-1.1057 3.3612-2.6861 6.4554-4.8273 9.444-0.54625-0.12044-0.93634-0.72106-1.021-0.49642-0.19179 0.50874-0.0678 1.3947 0.0101 1.8374-3.044 3.9151-6.7413 7.3264-10.607 10.744-0.67129-0.20598-0.96111-0.91318-1.1487-0.66398-0.46224 0.61418-0.58994 1.7634-0.62687 2.2342-4.378 3.8471-8.0107 7.0933-11.077 10.91-0.47205-0.1148-0.66667-0.80257-0.78751-0.54409-0.26107 0.55852-0.32978 1.4839-0.34801 2.002-2.411 3.2929-3.8563 6.3063-5.2363 9.671-0.32237-0.0857-0.51008-0.6658-0.56685-0.41075-0.12576 0.56519-0.0895 1.406-0.0446 1.931-1.5903 3.9759-2.7865 7.0058-5.3566 10.744 1.6961 1.5624 3.289 2.6114 4.8014 3.0949 1.4894 0.47616 2.7562 0.36144 3.9322-0.0727 2.342-0.8646 4.1798-2.8973 7.7258-3.9473 0.18696-8.0254 5.1514-13.396 12.148-20.344 7.1797-7.1301 13.007-13.065 15.959-22.386 2.8083-8.867 2.0211-18.267 1.8214-27.809-0.13572-6.483 0.76252-20.393-0.53596-24.817z" fill="url(#k)" stroke-linecap="round" stroke-width=".234"/> <path transform="matrix(.22526 .98002 -1.11 .19889 162.78 -74.751)" d="m178.14 15.508c0.63544 2.5734 1.237 5.1549 1.7927 7.7372 0.0558 0.0482 0.0444-0.23548 0.0761-0.07423 0.0819 0.41553 0.13497 0.89211 0.1605 1.1854 0.0862 0.41062 0.17193 0.82376 0.25581 1.2349 0.20099 0.98497 0.38327 1.9252 0.57007 2.9134 0.0826 0.04571 0.10968-0.25028 0.13512-0.08701 0.0665 0.42674 0.0781 0.94246 0.0764 1.2275 0.33827 1.8485 0.64926 3.6945 0.93466 5.557 0.11186 0.0065 0.18838-0.27295 0.2038-0.11423 0.0384 0.39513-3e-3 0.90031-0.039 1.2056 0.34213 2.3195 0.6538 4.6796 0.92061 7.0193 0.1924 0.01003 0.36562-0.36837 0.37192-0.17115 0.0158 0.49572-0.12717 1.1592-0.22041 1.5234 0.27382 2.5215 0.51865 5.0668 0.73912 7.5974 0.24858-0.05643 0.48418-0.41917 0.47785-0.2175-0.0148 0.46949-0.20886 1.1133-0.35892 1.5386 0.27732 3.2512 0.52098 6.5044 0.81057 9.7296 0.33264-0.0019 0.70317-0.48552 0.686-0.25622-0.0401 0.53469-0.35796 1.3139-0.54592 1.7331 0.40531 4.3339 0.87347 8.4546 1.518 12.669 0.45638-0.03166 0.916-0.64206 0.91506-0.35612-2e-3 0.71698-0.4191 1.8299-0.60904 2.3031 0.77003 4.6525 1.7111 9.0575 2.8824 13.573 0.46434 0.03974 0.92446-0.5738 0.93428-0.28321 0.0212 0.62607-0.27212 1.559-0.44883 2.0634 1.044 3.8582 2.2214 7.682 3.4714 11.53 0.50021 0.0586 0.94948-0.45206 0.97463-0.16869 0.0547 0.61769-0.21013 1.4784-0.38734 1.9725 1.3194 3.9964 3.0756 9.1652 4.5513 13.256-4.7041 1.3966-8.8627 0.62985-12.445-1.1315-3.8137-1.8752-6.4863-4.4743-9.5976-7.4248 0.62717-8.7153 0.89535-15.759 0.44899-23.992-0.42437-7.8276-1.409-14.854-1.1984-22.801 0.25302-9.5467 1.6932-14.715 3.0178-25.332 0.56148-4.5003 0.85123-8.6701 0.67293-12.958-0.17629-4.24-0.79789-8.1817-1.7478-12.201l-2e-5 -7.9e-5z" fill="url(#f)" stroke-linecap="round" stroke-width=".234"/> <path transform="matrix(.11692 .47272 -.47272 .11692 120.12 40.125)" d="m218.49 15.752c-0.85017 2.5829-1.9941 5.3046-3.2246 7.9118-0.2257-0.02546-0.33915-0.41404-0.3946-0.23911-0.13017 0.4109-0.15185 1.0734-0.15505 1.3811-0.20629 0.4234-0.41695 0.84753-0.63076 1.2723-0.50248 0.99816-1.0196 2.0084-1.5614 3.013-0.23766-0.01746-0.33479-0.4102-0.40367-0.23319-0.1674 0.43017-0.22243 1.1148-0.23912 1.4139-1.0584 1.9149-2.1759 3.8236-3.3536 5.7447-0.23749-0.04575-0.32885-0.40082-0.40632-0.23078-0.18483 0.40574-0.26132 1.0257-0.29004 1.3542-1.5137 2.427-3.0584 4.7514-4.6815 7.1501-0.33758-0.0447-0.47011-0.50095-0.57245-0.29527-0.24914 0.50088-0.32949 1.2736-0.35362 1.6546-1.8344 2.6869-3.3452 4.8316-5.1796 7.5185-0.33956-0.1096-0.50201-0.52918-0.59797-0.3256-0.22069 0.46847-0.27537 1.1675-0.28323 1.6132-2.1443 3.1808-4.1118 6.2762-5.8263 9.3848-0.4014-0.06238-0.63953-0.60385-0.71299-0.37637-0.17167 0.53162-0.10952 1.3492-0.0542 1.7922-2.184 4.1758-3.6987 8.1049-4.6471 12.265-0.37581-0.10259-0.67087-0.77823-0.6964-0.49105-0.0658 0.74072 0.17556 1.8797 0.30506 2.4089-0.86904 4.7176-0.92527 8.9135-1.0657 13.55-0.26592-0.03406-0.57248-0.72662-0.54632-0.42907 0.0581 0.65999 0.30977 1.6219 0.47757 2.1974-0.155 3.8861-0.48367 7.468-1.6114 10.986-0.34822-0.0705-0.5917-0.66104-0.63431-0.39414-0.0945 0.59217-0.0121 1.4557 0.0636 1.9984-1.5941 4.0265-4.2034 6.9071-7.4561 10.364 1.9699 1.6165 3.7213 2.7614 5.4585 3.3636 1.7032 0.5904 3.2386 0.60209 4.8158 0.27801 3.1323-0.64365 6.1893-2.5362 10.683-3.7022 1.3542-8.3071 0.27358-16.532 0.57443-24.745 0.31607-8.6283 1.848-16.007 4.8046-24.942 2.7393-8.2781 6.6154-17.531 10.105-26.07 3.2805-8.0259 7.4781-18.078 8.2908-26.142-7e-5 4e-6 -1.4e-4 8e-6 -2.1e-4 1.3e-5z" fill="url(#e)" stroke-linecap="round" stroke-width=".234"/> <g transform="matrix(.6092 1.1705 -1.1705 .6092 151.31 -31.309)"> <path d="m61.106 105.48 53.047-0.24445c0.32594 0.24445-2.1982 1.5652-0.69217 4.9479 8.5391 19.179 2.518 26.1-4.5546 33.488-0.59198 0.61839 0.0368 1.1072 0.0282 1.7467-0.0489 3.6428 0.0439 3.5542-8.253 3.5542h-27.887c-6.2691 0-6.292 0.0321-6.4333-3.5285-0.02476-0.62423 0.52568-1.1396-0.01999-1.7724-7.5759-8.7852-13.81-18.089-4.4465-33.419 1.8009-2.9485-0.78805-4.7725-0.78805-4.7725z" fill="url(#x)"/> <path d="m113.46 110.18c0.0822 0.14137 1.0872 2.5527 1.0028 2.3802l-53.899 0.0199c0.41792-0.79152 0.912-1.646 1.3778-2.4101 17.189-0.0208 42.114 0.023 51.518 0.01 0.2714 0.64259 0 1e-5 0 1e-5z" fill="url(#w)" stroke-linecap="square" stroke-linejoin="round" stroke-width=".3"/> <path d="m66.34 143.67h42.565s0.0241 1.7686 0.0282 1.7467l-42.573 0.0257c0.01351 1e-5 -0.02074-1.7724-0.02074-1.7724z" fill="url(#v)" stroke-linecap="square" stroke-linejoin="round" stroke-width=".30558"/> <path d="m61.532 99.566h52.318c1.2768 0 2.3047 1.0279 2.3047 2.3047v5.9923c0 1.2768-1.0279 2.3048-2.3047 2.3048h-52.318c-1.2768 0-2.3047-1.0279-2.3047-2.3048v-5.9923c0-1.2768 1.0279-2.3047 2.3047-2.3047z" fill="url(#u)" stroke-linecap="square" stroke-linejoin="round" stroke-width=".3"/> <path d="m95.077 148.45c5.6911-0.81043 12.264-0.0864 13.676-2.6071-0.0221 1.1599-0.018 2.6818-1.6727 2.634-3.9478 0.16249-7.9726 0.062-12.004-0.027z" fill="#b04a05" opacity=".66586" stroke-linecap="square" stroke-linejoin="round" stroke-width=".3"/> <path d="m61.224 109.42 34.588 5e-3c-5.8133-0.52525-34.498-0.31954-36.072-7.4102 0.16576 3.6993-0.86306 7.6571 1.4842 7.4056z" fill="#d67b40" opacity=".63922" stroke-linecap="square" stroke-linejoin="round" stroke-width=".3"/> <path d="m113.64 100.4-34.588-5e-3c5.8133 0.52525 34.498 0.31954 36.072 7.4102-0.16576-3.6993 0.86307-7.6571-1.4842-7.4056z" fill="#d67b40" opacity=".20097" stroke-linecap="square" stroke-linejoin="round" stroke-width=".3"/> <path d="m69.729 148.63 9.5634 0.025c-5.6911-0.81043-11.193-0.372-12.605-2.8927 0.02208 1.1599-0.01475 2.8116 1.6399 2.7638z" fill="#b5612a" fill-opacity=".99216" opacity=".66586" stroke-linecap="square" stroke-linejoin="round" stroke-width=".3"/> </g> <path d="m74.956 181.08c-7.8823 4.1026-16.599 3.1605-17.076 2.244-0.47706-0.91654 8.8904-1.3581 16.773-5.4607 7.8823-4.1026 11.073-8.5099 12.655-9.1176 0.96455-0.37049-4.4692 8.2317-12.351 12.334z" fill="#c86e32" fill-opacity=".98824" opacity=".25996" stroke-linecap="round" stroke-width=".234"/> </g> <path d="m144.04 179.98c-2.848 0.96375-5.5473 0.29133-8.2773-0.0432-1.1156-0.13671 0.97326-1.1837 2.0804-1.3482 1.5749-0.2339 1.2716-0.67389 1.9176-1.116 0.91543-0.62657 3.0146 0.13055 3.3341 1.1427 0.21591 0.68404 1.403 0.26887 0.94531 1.3647z" fill="url(#ai)" stroke-linecap="round" stroke-linejoin="round" stroke-width="1.8686"/> <path d="m120.28 181.79c-0.75568-0.38887-0.20856-0.8779 0.52562-1.3537 0.4625-0.29975 1.029-0.23912 1.4557-0.3102 0.59907-0.16169 2.0568-1.0618 2.5249 0.18509 0.22791 0.68014 1.7655 0.88253 0.51437 1.5532-1.6264 0.87178-3.9239 0.29143-5.0206-0.0743z" fill="url(#ah)" stroke-linecap="round" stroke-linejoin="round" stroke-width="1.8686"/> <path d="m154.17 179.25c0.0967-0.0733 0.0617-0.0937 0.1344-0.15526 0.15648-0.1326 0.31366-0.19254 0.55837-0.20929 0.24369-0.0167 0.59567 0.0146 0.68606 0.23016 0.0611 0.14565 0.0335 0.19641-0.0441 0.28006-0.29636 0.31937-0.73696 0.0926-1.2294 0.12498-0.15262-0.0442-0.25428-0.1577-0.10533-0.27065z" fill="url(#z)" stroke-linecap="round" stroke-linejoin="round" stroke-width=".41144"/> <path d="m144.39 179.94c-0.68953 8e-3 0.2381-0.40582 0.79847-0.51862 0.56038-0.1128 1.8681-0.79773 2.9571-0.59331 1.0619 0.19934 1.7453 0.38584 2.1829 0.54753 0.76302 0.2819 0.77913 0.4884 0.75225 0.55609-1.1952 0.0914-2.3272-0.21507-3.2323-7e-3 -1.7908 0.41263-2.9528 0.21629-3.4584 0.0148z" fill="url(#af)" stroke-linecap="round" stroke-linejoin="round" stroke-width="1.8686"/> <path d="m97.349 178.86c0.0967-0.0733 0.06173-0.0937 0.1344-0.15526 0.15648-0.1326 0.31366-0.19254 0.55836-0.20929 0.2437-0.0167 0.59568 0.0146 0.68606 0.23016 0.06109 0.14565 0.03353 0.19641-0.04409 0.28006-0.29636 0.31937-0.73696 0.0926-1.2294 0.12498-0.15262-0.0442-0.25428-0.1577-0.10533-0.27065z" fill="url(#ae)" stroke-linecap="round" stroke-linejoin="round" stroke-width=".41144"/> <path d="m97.265 179.41c-0.05363-0.0406-0.03423-0.052-0.07454-0.0861-0.08678-0.0735-0.17395-0.10678-0.30966-0.11607-0.13515-9e-3 -0.33036 8e-3 -0.38048 0.12765-0.03388 0.0808-0.0186 0.10892 0.02445 0.15532 0.16436 0.17712 0.40871 0.0514 0.68182 0.0693 0.08464-0.0245 0.14102-0.0875 0.05841-0.1501z" fill="url(#ad)" stroke-linecap="round" stroke-linejoin="round" stroke-width=".22818"/> <path d="m134.88 179.15c0.0967-0.0733 0.0617-0.0937 0.1344-0.15526 0.15648-0.1326 0.31366-0.19254 0.55837-0.20929 0.24369-0.0167 0.59567 0.0146 0.68606 0.23016 0.0611 0.14565 0.0335 0.19641-0.0441 0.28006-0.29636 0.31937-0.73696 0.0926-1.2294 0.12498-0.15262-0.0442-0.25428-0.1577-0.10533-0.27065z" fill="url(#ac)" stroke-linecap="round" stroke-linejoin="round" stroke-width=".41144"/> <path d="m133.55 178.79c-0.14111 0.0121-0.056-0.17665 0.0872-0.28522 0.0902-0.0684 0.16991-0.11016 0.25623-0.13118 0.31773-0.0773 0.19986-0.14687 0.4281-0.16249 0.22731-0.0155 0.36806-0.0886 0.45236 0.11237 0.057 0.13586 0.31431 0.18661 0.14643 0.36353-0.27974 0.29478-0.91098 0.0728-1.3703 0.10293z" fill="url(#ab)" stroke-linecap="round" stroke-linejoin="round" stroke-width=".38377"/> <path d="m146.95 180.27c-0.15668 0.0134-0.0622-0.19614 0.0968-0.31669 0.10015-0.076 0.18865-0.12232 0.2845-0.14566 0.35279-0.0858 0.22191-0.16307 0.47534-0.18042 0.25239-0.0172 0.40867-0.0984 0.50227 0.12477 0.0633 0.15085 0.34899 0.2072 0.16259 0.40364-0.31061 0.32731-1.1869 0.19773-1.5215 0.11429z" fill="url(#aa)" stroke-linecap="round" stroke-linejoin="round" stroke-width=".42611"/> <path d="m152.52 179.78c-0.0967-0.0433-0.0617-0.0554-0.1344-0.0917-0.15648-0.0783-0.31366-0.11384-0.55837-0.12363-0.24369-9e-3 -0.59567 8e-3 -0.68606 0.13594-0.0611 0.0861-0.0335 0.11605 0.0441 0.1655 0.29636 0.18873 0.73696 0.0548 1.2294 0.0739 0.15262-0.026 0.25428-0.0932 0.10533-0.15994z" fill="url(#y)" stroke-linecap="round" stroke-linejoin="round" stroke-width=".31629"/> </g> <path transform="matrix(1.44 -.13567 .13567 1.44 -61.626 111.82)" d="m68.642 23.309c0.16135-0.76798 0.12127-1.5774-0.11517-2.3257-0.23644-0.74828-0.6687-1.4338-1.242-1.9696-0.57333-0.53584-1.2864-0.92082-2.049-1.1062-0.76254-0.18537-1.5728-0.1707-2.3281 0.04214-0.75533 0.21285-1.454 0.62339-2.0076 1.1796-0.55356 0.55624-0.96073 1.2569-1.1699 2.0133s-0.21997 1.5667-0.03093 2.3283c0.18904 0.76164 0.57746 1.4729 1.116 2.0436 1.0044 1.0643 2.4385 1.5805 3.755 2.2196 0.65824 0.31953 1.3032 0.68092 1.8549 1.1615 0.55176 0.48056 1.0091 1.0894 1.22 1.79 0.29034 0.96444 0.09509 2.002-0.1361 2.9823-0.23119 0.98031-0.4987 1.9858-0.34592 2.9814 0.17524 1.142 0.89052 2.1371 1.7358 2.9247s1.8295 1.4085 2.7373 2.123c2.2612 1.7798 4.0456 4.1598 5.12 6.8294" fill="none" stroke="#000" stroke-linecap="round" stroke-linejoin="round" stroke-width="5.4782"/> <path d="m107.8 123.72c-4.1344-1.7699-8.5185-0.79264-9.7922 2.1826-0.0498 0.11673-0.0887 0.22944-0.12363 0.34008l-2.2705 1.7288 2.5208 0.17985c0.31585 0.46102 0.81661 0.86526 1.4499 1.2419l0.0348 2.9942 1.7967-2.0886c0.30128 0.13215 0.6237 0.26536 0.94597 0.3971l0.0362 3.1286 1.975-2.2961c0.11855 0.0505 0.23356 0.0955 0.35298 0.14641 0.22398 0.0958 0.44193 0.19237 0.65819 0.28801l0.0318 2.7404 1.6959-1.9715c0.42137 0.18659 0.83549 0.36715 1.2196 0.51903l0.0331 2.8797 1.9657-2.2852c1.184 0.16645 2.0766-0.19516 2.6497-1.5339 1.2737-2.9752-1.0454-6.822-5.1796-8.592z" stroke-linecap="square" stroke-linejoin="round" stroke-width=".99045"/> <path d="m85.221 135.07c4.1426-1.7506 8.5221-0.75286 9.7819 2.2283 0.0494 0.11666 0.0882 0.22961 0.12206 0.34058l2.2624 1.7394-2.5216 0.16806c-0.31798 0.45953-0.82059 0.86148-1.4556 1.2351l-0.0488 2.994-1.7869-2.0969c-0.3019 0.13075-0.62498 0.26239-0.94785 0.39264l-0.0508 3.1284-1.9641-2.3053c-0.11875 0.05-0.23401 0.0943-0.35368 0.14472-0.22436 0.0949-0.44277 0.19035-0.6595 0.28495l-0.0447 2.7402-1.6867-1.9794c-0.42221 0.18468-0.83722 0.36312-1.2221 0.51328l-0.04651 2.8796-1.9551-2.2944c-1.1847 0.1609-2.0756-0.20487-2.6425-1.5463-1.2598-2.9811 1.0771-6.8171 5.2197-8.5677z" stroke-linecap="square" stroke-linejoin="round" stroke-width=".99045"/> <g transform="translate(-15.346 -4.7625)" stroke-linejoin="round"> <path d="m52.59 88.755 17.872 4.5876c4.0414-4.0971 11.475-8.4063 24.856-8.376l7.2147-16.251c0.53811 11.007 3.4158 17.197 8.8115 25.949 7.2726 11.162 2.8127 24.027-10.716 30.394-15.853 7.4607-27.377 10.326-34.65-0.83609-3.9143-6.0077-4.7258-11.884-3.9032-18.042 1.0221-7.6521-4.1762-11.939-9.4855-17.426z" stroke-linecap="square" stroke-width=".99045"/> <path d="m93.807 101.32c4.1635-0.98513 9.8614-2.5073 10.91 1.9248 1.0487 4.4321-1.4764 8.8236-5.6398 9.8087-4.1635 0.98513-8.3888-1.8092-9.4374-6.2413-1.0487-4.4321 0.0037-4.5071 4.1671-5.4922z" fill="#fff" stroke-linecap="square" stroke-width=".99045"/> <circle transform="rotate(256.69)" cx="-128.59" cy="66.26" r="1.7232" stroke-linecap="square" stroke-width=".99045"/> <ellipse transform="rotate(254.07)" cx="-128.51" cy="47.328" rx="8.2466" ry="7.7468" fill="#fff" stroke-linecap="square" stroke-width=".99045"/> <path d="m88.392 116.94c1.4194-3.0926 4.0526-3.5228 6.9562-2.024 0.17553 0.39344 0.439 0.77876-0.07767 1.2364-2.8973 0.1443-1.9479 1.9214-1.4889 3.8798-0.30141 0.53778-0.72385 0.66979-1.2681 0.3933-0.59081-1.8792-0.6569-3.7249-3.4688-2.348-0.34917-0.0412-0.59579-0.34572-0.65268-1.1376z" fill="#fff" stroke-linecap="square" stroke-width=".99045"/> <g transform="matrix(1.4046 -.34505 .34505 1.4046 2.0025 -35.089)" fill-rule="evenodd" stroke="#000" stroke-linecap="round" stroke-width=".68478"> <path transform="rotate(-40.832 47.762 100.66)" d="m17.036 93.403-6.1681-2.3498"/> <path transform="translate(2.6435 21.515)" d="m17.036 93.403-6.1681-2.3498"/> <path transform="rotate(-19.266 82.607 96.345)" d="m17.036 93.403-6.1681-2.3498"/> </g> <path transform="matrix(-1.1548 -.87095 -.87095 1.1548 208.94 15.49)" d="m17.036 93.403-6.1681-2.3498" fill-rule="evenodd" stroke="#000" stroke-linecap="round" stroke-width=".68478"/> <path transform="matrix(-1.4432 .096056 .096056 1.4432 123.63 -28.424)" d="m17.036 93.403-6.1681-2.3498" fill-rule="evenodd" stroke="#000" stroke-linecap="round" stroke-width=".68478"/> <path transform="matrix(-1.3941 -.38551 -.38551 1.3941 167.71 -15.215)" d="m17.036 93.403-6.1681-2.3498" fill-rule="evenodd" stroke="#000" stroke-linecap="round" stroke-width=".68478"/> <g stroke-linecap="square"> <circle transform="rotate(256.69)" cx="-127.38" cy="68.042" r="4.6336" stroke-width="2.6633"/> <circle transform="rotate(256.69)" cx="-129.25" cy="65.814" r=".97481" fill="#fff" stroke-width=".56031"/> </g> <g transform="matrix(-.92762 .37353 .37353 .92762 132.21 -23.881)" stroke-linecap="square"> <circle transform="rotate(256.69)" cx="-127.38" cy="68.042" r="4.6336" stroke-width="2.6633"/> <circle transform="rotate(256.69)" cx="-129.25" cy="65.814" r=".97481" fill="#fff" stroke-width=".56031"/> </g> </g> </g> </svg>